<?xml version="1.0" encoding="UTF-8" standalone="no"?>
<svg
   xmlns:dc="http://purl.org/dc/elements/1.1/"
   xmlns:cc="http://creativecommons.org/ns#"
   xmlns:rdf="http://www.w3.org/1999/02/22-rdf-syntax-ns#"
   xmlns:svg="http://www.w3.org/2000/svg"
   xmlns="http://www.w3.org/2000/svg"
   viewBox="0 0 631.25 611.25"
   height="611.25"
   width="631.25"
   xml:space="preserve"
   version="1.1"
   id="svg4155"><metadata
     id="metadata4161"><rdf:RDF><cc:Work
         rdf:about=""><dc:format>image/svg+xml</dc:format><dc:type
           rdf:resource="http://purl.org/dc/dcmitype/StillImage" /><dc:title></dc:title></cc:Work></rdf:RDF></metadata><defs
     id="defs4159" /><g
     transform="matrix(1.25,0,0,-1.25,0,611.25)"
     id="g4163"><g
       transform="scale(0.1,0.1)"
       id="g4165"><path
         id="path4167"
         style="fill:#ffffff;fill-opacity:1;fill-rule:nonzero;stroke:none"
         d="m 0,4890 2443.29,0 c -96.66,-5.28 -193.47,-11.74 -289.27,-26.06 -386.01,-54.48 -758,-198.29 -1077.16,-415.41 C 804.059,4263.49 569.641,4025.74 391.223,3753.42 180.027,3431.8 48.4766,3061.48 11.6641,2682.01 5.85938,2629.6 3.73438,2576.88 0,2524.32 L 0,4890" /><path
         id="path4169"
         style="fill:#1a1d42;fill-opacity:1;fill-rule:nonzero;stroke:none"
         d="m 2443.29,4890 134.18,0 c 219.93,-5.04 439.39,-36.38 650.74,-95.94 395.77,-110.32 762.26,-317.27 1056.87,-595.85 273.41,-256.38 485.51,-573.74 614.83,-920.35 94.08,-250.36 143.82,-515.84 150.09,-782.1 l 0,-101.57 c -5.56,-232.96 -44.14,-465.28 -116.95,-687.48 C 4813.15,1338.94 4601.41,999.41 4320.42,726.02 4031.86,441.66 3669.58,228.07 3276.44,109.871 3050.29,41.5195 2814.16,5.32031 2577.47,0 L 2467.53,0 C 2168.13,7.24219 1869.72,64.6406 1591.45,172.32 1262.09,299.121 960.969,494.129 714.418,740.73 426.57,1026.11 212.855,1381.18 98.9297,1764.61 37.5195,1969.1 5.09766,2181.43 0,2394.24 l 0,130.08 c 3.73438,52.56 5.85938,105.28 11.6641,157.69 36.8125,379.47 168.3629,749.79 379.5589,1071.41 178.418,272.32 412.836,510.07 685.637,695.11 319.16,217.12 691.15,360.93 1077.16,415.41 95.8,14.32 192.61,20.78 289.27,26.06 l 0,0" /><path
         id="path4171"
         style="fill:#ffffff;fill-opacity:1;fill-rule:nonzero;stroke:none"
         d="m 2577.47,4890 2472.53,0 0,-2394.24 c -6.27,266.26 -56.01,531.74 -150.09,782.1 -129.32,346.61 -341.42,663.97 -614.83,920.35 -294.61,278.58 -661.1,485.53 -1056.87,595.85 -211.35,59.56 -430.81,90.9 -650.74,95.94 l 0,0" /><path
         id="path4173"
         style="fill:#ffffff;fill-opacity:1;fill-rule:nonzero;stroke:none"
         d="m 2415.66,4820.22 c 377.19,16.77 758.36,-52.18 1103.54,-200.74 378.64,-162.29 713.1,-419.31 963.03,-738.97 216.95,-276.48 370.42,-599.56 444.55,-939.42 105.29,-477.46 55,-986.12 -145.19,-1434.48 C 4627.42,1158.88 4385.57,848.211 4083.63,608.02 3760.13,349.629 3367.14,173.641 2954,103.559 2652.97,52.3711 2342.14,55.25 2042.42,113.5 1704.28,178.242 1381.17,314.332 1100.75,508.27 773.559,733.941 504.75,1038.24 325.875,1386.6 130.844,1764.32 44.1875,2193.36 75.8516,2614.39 c 23.789,332.51 121.1994,660.05 284.6174,953.45 127.515,230.57 294.969,440.25 492.828,618.25 274.973,248.31 609.743,434.28 970.163,537.95 192.35,55.4 391.73,87.82 592.2,96.18 l 0,0" /><path
         id="path4175"
         style="fill:none;stroke:#100f0d;stroke-width:10;stroke-linecap:butt;stroke-linejoin:miter;stroke-miterlimit:4;stroke-dasharray:none;stroke-opacity:1"
         d="m 2415.66,4820.22 c 377.19,16.77 758.36,-52.18 1103.54,-200.74 378.64,-162.29 713.1,-419.31 963.03,-738.97 216.95,-276.48 370.42,-599.56 444.55,-939.42 105.29,-477.46 55,-986.12 -145.19,-1434.48 C 4627.42,1158.88 4385.57,848.211 4083.63,608.02 3760.13,349.629 3367.14,173.641 2954,103.559 2652.97,52.3711 2342.14,55.25 2042.42,113.5 1704.28,178.242 1381.17,314.332 1100.75,508.27 773.559,733.941 504.75,1038.24 325.875,1386.6 130.844,1764.32 44.1875,2193.36 75.8516,2614.39 c 23.789,332.51 121.1994,660.05 284.6174,953.45 127.515,230.57 294.969,440.25 492.828,618.25 274.973,248.31 609.743,434.28 970.163,537.95 192.35,55.4 391.73,87.82 592.2,96.18 l 0,0 z" /><path
         id="path4177"
         style="fill:#1a1d42;fill-opacity:1;fill-rule:nonzero;stroke:none"
         d="m 2410.92,4726.53 c 31.26,1.9 62.67,-0.59 93.92,2.59 33.74,2.15 67.33,-3.28 101.12,-1.76 427.48,-12.42 850.47,-141.72 1208,-368.9 244.62,-154.77 459.05,-354.14 629.48,-583.92 251.49,-338.29 403.9,-744.99 433.6,-1160.93 6.47,-56.04 3.59,-112.47 7.42,-168.61 -3.58,-56.43 -1.21,-113.11 -7.42,-169.39 C 4845.93,1842.56 4681.76,1419.62 4411.43,1073.35 4348.91,992.961 4281.49,915.949 4207.61,845.09 3918.85,557.309 3548.89,347.191 3149.23,241.762 2957.48,191.301 2759.06,163.32 2560.3,162.109 c -21.82,-2.058 -43.79,-2.55 -65.59,-0.339 -335.53,2.628 -670.2,77.16 -973.75,215.64 -347.03,157.512 -652.112,399.559 -882.386,695.99 -298.656,382.11 -467.125,858.15 -471.316,1337.42 -4.699,39.16 2.426,78.29 0.805,117.56 11.664,338.18 102.82,673.59 265.023,973.39 93.676,174 211.144,335.75 347.289,480.98 57.27,58.64 115.648,116.39 177.91,170.04 289.865,250.16 644.585,429.48 1022.735,515.25 140.99,32.47 285.16,51.2 429.9,58.49 l 0,0" /><path
         id="path4179"
         style="fill:#ffffff;fill-opacity:1;fill-rule:nonzero;stroke:none"
         d="m 2279.41,4591.86 c 49.4,8.11 105.09,17.07 150.4,-9.24 46.61,-29.24 68.27,-83.67 74.23,-135.16 11.11,-66.17 -6.21,-138.93 -55.4,-187.64 -29.7,-27.67 -68.57,-47.28 -110.24,-49.38 -66.86,-4.94 -133.87,-9.73 -200.44,-17.95 18.8,42.94 7.94,89.93 4.95,134.57 -6.91,59.32 -13.68,118.63 -21.55,177.8 -3.09,22.78 -11.12,44.94 -24.9,63.72 61.35,4.98 122.55,11.64 182.95,23.28 l 0,0" /><path
         id="path4181"
         style="fill:none;stroke:#100f0d;stroke-width:10;stroke-linecap:butt;stroke-linejoin:miter;stroke-miterlimit:4;stroke-dasharray:none;stroke-opacity:1"
         d="m 2279.41,4591.86 c 49.4,8.11 105.09,17.07 150.4,-9.24 46.61,-29.24 68.27,-83.67 74.23,-135.16 11.11,-66.17 -6.21,-138.93 -55.4,-187.64 -29.7,-27.67 -68.57,-47.28 -110.24,-49.38 -66.86,-4.94 -133.87,-9.73 -200.44,-17.95 18.8,42.94 7.94,89.93 4.95,134.57 -6.91,59.32 -13.68,118.63 -21.55,177.8 -3.09,22.78 -11.12,44.94 -24.9,63.72 61.35,4.98 122.55,11.64 182.95,23.28 l 0,0 z" /><path
         id="path4183"
         style="fill:#1a1d42;fill-opacity:1;fill-rule:nonzero;stroke:none"
         d="m 2264.62,4573.56 c 29.34,5.48 59.19,-3.27 86.01,-14.42 47.82,-20.53 76.2,-69.29 84.38,-117.7 5.05,-34.92 6.61,-72.32 -8.79,-105.19 -18.53,-45.37 -56.76,-80.24 -98.33,-106.25 -16.31,-10.91 -37.11,-8.56 -55.85,-8.86 -20.05,-0.19 -43.48,7.78 -51.25,27.2 -10.6,30.61 -10.46,63.22 -14.75,94.91 -5.15,58.73 -16.97,117.55 -9.95,176.63 4.45,31.78 40.5,45.82 68.53,53.68 l 0,0" /><path
         id="path4185"
         style="fill:#ffffff;fill-opacity:1;fill-rule:nonzero;stroke:none"
         d="m 2926.02,4539.49 c 31.21,9.04 64.58,8.94 96.16,1.31 30.5,-7.62 62.56,-0.09 93.02,-8.21 41.25,-8.55 79.68,-33.25 99.99,-69.64 52.91,-90.8 17.37,-217.74 -74.29,-271.78 -39.04,-22.3 -86.11,-33.44 -131.15,-25.04 -28.03,5.68 -56.62,7.48 -85.19,8.07 -27.28,3.72 -54.7,10.71 -78.18,24.99 -39.13,26.06 -67.26,68.07 -71.76,114.23 -18.68,98.14 53.89,199.61 151.4,226.07 l 0,0" /><path
         id="path4187"
         style="fill:none;stroke:#100f0d;stroke-width:10;stroke-linecap:butt;stroke-linejoin:miter;stroke-miterlimit:4;stroke-dasharray:none;stroke-opacity:1"
         d="m 2926.02,4539.49 c 31.21,9.04 64.58,8.94 96.16,1.31 30.5,-7.62 62.56,-0.09 93.02,-8.21 41.25,-8.55 79.68,-33.25 99.99,-69.64 52.91,-90.8 17.37,-217.74 -74.29,-271.78 -39.04,-22.3 -86.11,-33.44 -131.15,-25.04 -28.03,5.68 -56.62,7.48 -85.19,8.07 -27.28,3.72 -54.7,10.71 -78.18,24.99 -39.13,26.06 -67.26,68.07 -71.76,114.23 -18.68,98.14 53.89,199.61 151.4,226.07 l 0,0 z" /><path
         id="path4189"
         style="fill:#1a1d42;fill-opacity:1;fill-rule:nonzero;stroke:none"
         d="m 2981.46,4520.07 c 41.01,11.79 89.3,4.45 121.21,-24.25 17.78,-15.8 38.34,-30.76 47.31,-53.36 22.18,-50.02 16.92,-107.97 -5.04,-157.11 -14.5,-28.5 -36.86,-53.05 -63.22,-71.79 -42.53,-28.35 -100.3,-39.51 -148.48,-18.13 -18.03,7.13 -31.56,21.02 -45.29,33.78 -34.25,30.91 -45.61,79.17 -42.58,122.99 2.63,47.33 28.28,90.37 61.21,124.26 20.86,20.04 46.36,36.08 74.88,43.61 l 0,0" /><path
         id="path4191"
         style="fill:#ffffff;fill-opacity:1;fill-rule:nonzero;stroke:none"
         d="m 1755.78,4472.69 c 29.24,4.89 57.62,13.74 84.8,25.38 -3.34,-42.99 14.44,-83.18 26.16,-123.72 20.55,-64.89 39.18,-130.76 68.57,-192.52 7.02,-18.58 30.2,-16.92 46.16,-11.59 41.16,15.25 80.29,35.36 117.05,58.92 -0.7,-17.89 -4.34,-35.55 -6.06,-53.34 -70.29,-20.55 -140.49,-41.42 -210.43,-63.09 -17.57,87.09 -48.12,171 -77.42,254.87 -13.27,36.23 -25.69,73.35 -48.83,105.09 l 0,0" /><path
         id="path4193"
         style="fill:none;stroke:#100f0d;stroke-width:10;stroke-linecap:butt;stroke-linejoin:miter;stroke-miterlimit:4;stroke-dasharray:none;stroke-opacity:1"
         d="m 1755.78,4472.69 c 29.24,4.89 57.62,13.74 84.8,25.38 -3.34,-42.99 14.44,-83.18 26.16,-123.72 20.55,-64.89 39.18,-130.76 68.57,-192.52 7.02,-18.58 30.2,-16.92 46.16,-11.59 41.16,15.25 80.29,35.36 117.05,58.92 -0.7,-17.89 -4.34,-35.55 -6.06,-53.34 -70.29,-20.55 -140.49,-41.42 -210.43,-63.09 -17.57,87.09 -48.12,171 -77.42,254.87 -13.27,36.23 -25.69,73.35 -48.83,105.09 l 0,0 z" /><path
         id="path4195"
         style="fill:#ffffff;fill-opacity:1;fill-rule:nonzero;stroke:none"
         d="m 3371.12,4442.07 c 18.84,-10.65 36.58,-23.27 56.42,-32.31 53.27,-24.16 106.25,-52.04 165.28,-60.21 -10.2,-15.06 -19.59,-30.6 -28.93,-46.15 -40.96,21.07 -82.78,40.44 -124.34,60.34 -5.05,2.24 -10.24,3.86 -15.65,4.84 -22.52,-43.23 -46.46,-85.77 -65.8,-130.42 49.23,-20.78 97.21,-47.23 150.84,-55.7 -8.79,-13.05 -16.16,-26.94 -23.28,-40.87 -47.77,21.07 -93.63,46.01 -141.85,66.21 -23.39,-47.24 -47.52,-94.38 -63.79,-144.55 -22.87,13.25 -47.01,24.25 -72.21,32.81 25.35,39.56 51.76,78.73 71.51,121.32 25.3,49.58 49.89,99.51 73.73,149.78 11.05,23.52 17.21,49.1 18.07,74.91 l 0,0" /><path
         id="path4197"
         style="fill:none;stroke:#100f0d;stroke-width:10;stroke-linecap:butt;stroke-linejoin:miter;stroke-miterlimit:4;stroke-dasharray:none;stroke-opacity:1"
         d="m 3371.12,4442.07 c 18.84,-10.65 36.58,-23.27 56.42,-32.31 53.27,-24.16 106.25,-52.04 165.28,-60.21 -10.2,-15.06 -19.59,-30.6 -28.93,-46.15 -40.96,21.07 -82.78,40.44 -124.34,60.34 -5.05,2.24 -10.24,3.86 -15.65,4.84 -22.52,-43.23 -46.46,-85.77 -65.8,-130.42 49.23,-20.78 97.21,-47.23 150.84,-55.7 -8.79,-13.05 -16.16,-26.94 -23.28,-40.87 -47.77,21.07 -93.63,46.01 -141.85,66.21 -23.39,-47.24 -47.52,-94.38 -63.79,-144.55 -22.87,13.25 -47.01,24.25 -72.21,32.81 25.35,39.56 51.76,78.73 71.51,121.32 25.3,49.58 49.89,99.51 73.73,149.78 11.05,23.52 17.21,49.1 18.07,74.91 l 0,0 z" /><path
         id="path4199"
         style="fill:#ffffff;fill-opacity:1;fill-rule:nonzero;stroke:none"
         d="m 1591.15,4406.23 c 26.93,5.23 51.12,18.1 75.9,28.81 11.32,-57.12 41.77,-108.22 64.19,-161.62 29.7,-62.29 60.05,-124.65 97.92,-182.78 -26.56,-8.81 -52.92,-18.64 -76.6,-33.45 -23.24,86.01 -63.03,166.4 -101.11,246.94 -18.73,34.76 -36.66,70.07 -60.3,102.1 l 0,0" /><path
         id="path4201"
         style="fill:none;stroke:#100f0d;stroke-width:10;stroke-linecap:butt;stroke-linejoin:miter;stroke-miterlimit:4;stroke-dasharray:none;stroke-opacity:1"
         d="m 1591.15,4406.23 c 26.93,5.23 51.12,18.1 75.9,28.81 11.32,-57.12 41.77,-108.22 64.19,-161.62 29.7,-62.29 60.05,-124.65 97.92,-182.78 -26.56,-8.81 -52.92,-18.64 -76.6,-33.45 -23.24,86.01 -63.03,166.4 -101.11,246.94 -18.73,34.76 -36.66,70.07 -60.3,102.1 l 0,0 z" /><path
         id="path4203"
         style="fill:#ffffff;fill-opacity:1;fill-rule:nonzero;stroke:none"
         d="m 1435.92,4324.57 c 25.64,9.63 49.14,23.96 69.33,42.05 30.72,-75.98 80.85,-142 124.39,-211.19 25.29,-38 47.47,-80.94 87.05,-107.09 -23.93,-13.5 -48.67,-25.98 -70.29,-42.99 -7.47,13.65 -15.15,27.29 -24.9,39.51 -12.57,-15.89 -23.32,-33.25 -37.96,-47.53 -44.3,-38.63 -79.85,-88.9 -135.55,-113.5 -23.99,-11.05 -54.85,-3.96 -71.52,15.99 -13.98,16.34 -25.3,34.57 -36.8,52.57 -35.41,56.77 -70.86,113.55 -108.28,169.09 -12.27,19.03 -28.33,35.9 -48.68,47 28.33,10.76 54.49,26.46 76.7,46.65 23.14,-48.85 46.82,-97.79 77.22,-142.98 24.44,-37.56 46.82,-77.51 80.45,-108.32 20.61,-18.82 51.66,-28.31 78.84,-18.04 27.92,12.91 56.4,31.15 68.11,60.25 21.36,46.3 14.65,100.73 -9.39,144.88 -31.41,62.6 -70.75,121.72 -118.72,173.65 l 0,0" /><path
         id="path4205"
         style="fill:none;stroke:#100f0d;stroke-width:10;stroke-linecap:butt;stroke-linejoin:miter;stroke-miterlimit:4;stroke-dasharray:none;stroke-opacity:1"
         d="m 1435.92,4324.57 c 25.64,9.63 49.14,23.96 69.33,42.05 30.72,-75.98 80.85,-142 124.39,-211.19 25.29,-38 47.47,-80.94 87.05,-107.09 -23.93,-13.5 -48.67,-25.98 -70.29,-42.99 -7.47,13.65 -15.15,27.29 -24.9,39.51 -12.57,-15.89 -23.32,-33.25 -37.96,-47.53 -44.3,-38.63 -79.85,-88.9 -135.55,-113.5 -23.99,-11.05 -54.85,-3.96 -71.52,15.99 -13.98,16.34 -25.3,34.57 -36.8,52.57 -35.41,56.77 -70.86,113.55 -108.28,169.09 -12.27,19.03 -28.33,35.9 -48.68,47 28.33,10.76 54.49,26.46 76.7,46.65 23.14,-48.85 46.82,-97.79 77.22,-142.98 24.44,-37.56 46.82,-77.51 80.45,-108.32 20.61,-18.82 51.66,-28.31 78.84,-18.04 27.92,12.91 56.4,31.15 68.11,60.25 21.36,46.3 14.65,100.73 -9.39,144.88 -31.41,62.6 -70.75,121.72 -118.72,173.65 l 0,0 z" /><path
         id="path4207"
         style="fill:#ffffff;fill-opacity:1;fill-rule:nonzero;stroke:none"
         d="m 3799.02,4081.78 c 24.59,28.95 48.68,58.39 68.47,90.66 17.68,-21.91 40.76,-38.63 63.68,-55.01 -47.16,-32.27 -87.66,-72.38 -124.88,-114.87 55.85,-48.36 110.84,-97.65 168.01,-144.45 37.16,42.06 78.79,82.64 101.15,134.48 20.35,-20.79 41.82,-40.73 66.1,-57.16 -31.26,-19.27 -58.06,-44.45 -82.21,-71.55 -36.31,-39.86 -73.32,-79.02 -109.68,-118.82 -24.86,-29.73 -51.11,-59.17 -66.82,-94.72 -19.59,18.92 -39.03,38.29 -62.81,52.32 46.96,38.14 88.37,82 127.91,127.19 -53.99,49.97 -111.55,96.24 -166.3,145.48 -27.22,-24.2 -48.68,-53.5 -71.51,-81.37 -14.99,-19.37 -30.6,-38.44 -42.47,-59.86 -15.71,21.17 -37.56,36.57 -58.42,52.57 71.9,56.77 127.4,129.29 189.78,195.11 l 0,0" /><path
         id="path4209"
         style="fill:none;stroke:#100f0d;stroke-width:10;stroke-linecap:butt;stroke-linejoin:miter;stroke-miterlimit:4;stroke-dasharray:none;stroke-opacity:1"
         d="m 3799.02,4081.78 c 24.59,28.95 48.68,58.39 68.47,90.66 17.68,-21.91 40.76,-38.63 63.68,-55.01 -47.16,-32.27 -87.66,-72.38 -124.88,-114.87 55.85,-48.36 110.84,-97.65 168.01,-144.45 37.16,42.06 78.79,82.64 101.15,134.48 20.35,-20.79 41.82,-40.73 66.1,-57.16 -31.26,-19.27 -58.06,-44.45 -82.21,-71.55 -36.31,-39.86 -73.32,-79.02 -109.68,-118.82 -24.86,-29.73 -51.11,-59.17 -66.82,-94.72 -19.59,18.92 -39.03,38.29 -62.81,52.32 46.96,38.14 88.37,82 127.91,127.19 -53.99,49.97 -111.55,96.24 -166.3,145.48 -27.22,-24.2 -48.68,-53.5 -71.51,-81.37 -14.99,-19.37 -30.6,-38.44 -42.47,-59.86 -15.71,21.17 -37.56,36.57 -58.42,52.57 71.9,56.77 127.4,129.29 189.78,195.11 l 0,0 z" /><path
         id="path4211"
         style="fill:#ffffff;fill-opacity:1;fill-rule:nonzero;stroke:none"
         d="m 2466.17,4096.45 c 233.87,7.78 469.3,-31.15 686.8,-114.92 318.65,-122.1 597.66,-339.21 788.05,-615.15 125.34,-179.53 213.27,-383.48 257.09,-595.95 67.27,-322.59 32.22,-664.5 -100.74,-967.48 C 3988.64,1553.7 3815.93,1330.86 3598.52,1160.94 3360.88,974.242 3070.6,850.609 2767.45,809.352 c -195.94,-27.141 -396.78,-21.133 -590.6,17.839 -379.46,75.688 -729.26,281.909 -973.38,573.059 -137.62,162.98 -243.009,351.6 -307.552,552.72 -61.152,188.36 -86,387.53 -74.586,584.6 15.703,286.4 111.203,568.31 273.508,808.26 101.86,151.5 229.27,286.8 376.27,398.34 281.96,215.71 635.85,341.38 995.06,352.28 l 0,0" /><path
         id="path4213"
         style="fill:none;stroke:#100f0d;stroke-width:10;stroke-linecap:butt;stroke-linejoin:miter;stroke-miterlimit:4;stroke-dasharray:none;stroke-opacity:1"
         d="m 2466.17,4096.45 c 233.87,7.78 469.3,-31.15 686.8,-114.92 318.65,-122.1 597.66,-339.21 788.05,-615.15 125.34,-179.53 213.27,-383.48 257.09,-595.95 67.27,-322.59 32.22,-664.5 -100.74,-967.48 C 3988.64,1553.7 3815.93,1330.86 3598.52,1160.94 3360.88,974.242 3070.6,850.609 2767.45,809.352 c -195.94,-27.141 -396.78,-21.133 -590.6,17.839 -379.46,75.688 -729.26,281.909 -973.38,573.059 -137.62,162.98 -243.009,351.6 -307.552,552.72 -61.152,188.36 -86,387.53 -74.586,584.6 15.703,286.4 111.203,568.31 273.508,808.26 101.86,151.5 229.27,286.8 376.27,398.34 281.96,215.71 635.85,341.38 995.06,352.28 l 0,0 z" /><path
         id="path4215"
         style="fill:#ffffff;fill-opacity:1;fill-rule:nonzero;stroke:none"
         d="m 997.523,4021.93 c 22.027,18.92 49.187,33.01 78.127,38.68 18.12,3.66 35.8,-2.69 53.13,-7.14 -18.03,-21.71 -36.56,-43.04 -53.43,-65.63 -17.48,4.46 -36.66,9.59 -53.94,1.37 -30.75,-13.64 -59.789,-32.86 -81.351,-58.39 -24.547,-33.59 -36.512,-75.79 -33.079,-116.82 5.454,-61.75 46.965,-118.43 104.18,-145.67 29.39,-13.89 61.66,-25.92 94.99,-21.96 30.66,3.82 60.2,15.02 87.01,29.64 23.74,17.26 37.06,44.35 48.73,70.02 11.01,24.01 11.82,52.67 -1.76,75.9 -16.61,29.38 -43.13,52.61 -70.9,72.03 17.72,17.8 36.36,34.81 53.06,53.54 21.13,-29.88 44.65,-58.34 70.56,-84.5 20.1,-16.87 46.01,-24.99 70.75,-33.35 -41.36,-28.17 -76.31,-64.15 -105.13,-104.2 -16.67,-24.31 -41.42,-41.77 -59.3,-65.04 -20.96,-24.94 -42.97,-50.81 -73.88,-64.55 -34.04,-16.97 -74.89,-17.9 -110.7,-5.62 -59.785,20.49 -107.457,66.41 -138.063,119.22 -37.828,65.32 -18.281,149.34 30.911,203.86 33.832,33.25 53.73,77.41 90.085,108.61 l 0,0" /><path
         id="path4217"
         style="fill:none;stroke:#100f0d;stroke-width:10;stroke-linecap:butt;stroke-linejoin:miter;stroke-miterlimit:4;stroke-dasharray:none;stroke-opacity:1"
         d="m 997.523,4021.93 c 22.027,18.92 49.187,33.01 78.127,38.68 18.12,3.66 35.8,-2.69 53.13,-7.14 -18.03,-21.71 -36.56,-43.04 -53.43,-65.63 -17.48,4.46 -36.66,9.59 -53.94,1.37 -30.75,-13.64 -59.789,-32.86 -81.351,-58.39 -24.547,-33.59 -36.512,-75.79 -33.079,-116.82 5.454,-61.75 46.965,-118.43 104.18,-145.67 29.39,-13.89 61.66,-25.92 94.99,-21.96 30.66,3.82 60.2,15.02 87.01,29.64 23.74,17.26 37.06,44.35 48.73,70.02 11.01,24.01 11.82,52.67 -1.76,75.9 -16.61,29.38 -43.13,52.61 -70.9,72.03 17.72,17.8 36.36,34.81 53.06,53.54 21.13,-29.88 44.65,-58.34 70.56,-84.5 20.1,-16.87 46.01,-24.99 70.75,-33.35 -41.36,-28.17 -76.31,-64.15 -105.13,-104.2 -16.67,-24.31 -41.42,-41.77 -59.3,-65.04 -20.96,-24.94 -42.97,-50.81 -73.88,-64.55 -34.04,-16.97 -74.89,-17.9 -110.7,-5.62 -59.785,20.49 -107.457,66.41 -138.063,119.22 -37.828,65.32 -18.281,149.34 30.911,203.86 33.832,33.25 53.73,77.41 90.085,108.61 l 0,0 z" /><path
         id="path4219"
         style="fill:#1a1d42;fill-opacity:1;fill-rule:nonzero;stroke:none"
         d="m 2385.92,4026.18 c 199.02,16.43 401.07,-2.84 593.03,-56.18 199.57,-55.75 387.98,-148.66 551.7,-272.48 319.98,-239.37 542.87,-597.41 609.39,-983.87 38.34,-213.78 29.94,-435.06 -23.13,-645.77 -77.36,-309.69 -255.03,-594.86 -500.95,-806.45 C 3363.86,1042.21 3039.6,901.77 2702.45,867.691 2491.16,844.648 2275.43,863.48 2071.04,920 c -209.91,58.629 -407.47,158.5 -577.05,291.93 -307.14,239.47 -520.197,589.79 -584.486,966.81 -41.66,235.3 -27.219,479.76 41.664,709.04 88.782,297.72 270.682,568.47 515.302,768.13 256.79,212.03 583.07,343.38 919.45,370.27 l 0,0" /><path
         id="path4221"
         style="fill:#ffffff;fill-opacity:1;fill-rule:nonzero;stroke:none"
         d="m 2461.16,3984.13 c 54.75,5.42 109.69,0.63 164.48,-1.13 231.8,-13.93 460.37,-77.75 663.77,-186.35 339.07,-179.03 606.31,-481.62 734.89,-834.34 55.4,-150.37 86.8,-309.2 90.85,-468.8 2.77,-33.98 2.56,-68.27 -0.31,-102.25 -9.64,-345.33 -147.46,-684.94 -379.76,-946.75 C 3538.53,1220.89 3274.52,1053.41 2983.9,969.148 2853.15,931.199 2717.3,909 2580.75,905.43 c -35.3,-2.739 -70.9,-2.828 -106.25,-0.231 -216.24,5.461 -431.12,55.731 -626.66,145.171 -354.71,160.39 -642.96,452.57 -792.59,802.84 -86.207,200.44 -127.816,418.88 -120.898,635.84 6.918,264.16 86.408,526.13 228.008,752.04 160.43,257.81 400.56,468.27 681.64,596.92 192.66,88.27 403.96,139.62 617.16,146.12 l 0,0" /><path
         id="path4223"
         style="fill:#ffffff;fill-opacity:1;fill-rule:nonzero;stroke:none"
         d="m 4186.55,3885.99 c 14.04,-21.38 29.99,-41.47 46.92,-60.74 6.72,-7.14 -3.54,-14.38 -6.47,-20.73 -33.58,-45.97 -57.31,-97.61 -86.2,-146.26 -8.08,-13.5 -15.26,-27.53 -20.7,-42.25 17.07,1.26 33.83,4.99 50.54,8.7 63.53,14.43 127.06,29.05 190.69,43.03 10.35,-16.92 22.37,-32.81 36.56,-46.89 -30.15,-4.35 -60.85,-3.47 -90.64,-10.27 -69.69,-14.37 -139.98,-27.43 -207.66,-49.05 -32.83,-19.06 -62.42,-44.01 -85.95,-73.34 -16.06,22.39 -32.82,44.39 -51.76,64.59 22.62,13.4 43.53,29.19 64.73,44.55 22.73,16.09 38.18,39.51 52.02,62.83 24.24,41.96 46.36,84.99 69.69,127.44 15.45,31.64 32.92,63.32 38.23,98.39 l 0,0" /><path
         id="path4225"
         style="fill:none;stroke:#100f0d;stroke-width:10;stroke-linecap:butt;stroke-linejoin:miter;stroke-miterlimit:4;stroke-dasharray:none;stroke-opacity:1"
         d="m 4186.55,3885.99 c 14.04,-21.38 29.99,-41.47 46.92,-60.74 6.72,-7.14 -3.54,-14.38 -6.47,-20.73 -33.58,-45.97 -57.31,-97.61 -86.2,-146.26 -8.08,-13.5 -15.26,-27.53 -20.7,-42.25 17.07,1.26 33.83,4.99 50.54,8.7 63.53,14.43 127.06,29.05 190.69,43.03 10.35,-16.92 22.37,-32.81 36.56,-46.89 -30.15,-4.35 -60.85,-3.47 -90.64,-10.27 -69.69,-14.37 -139.98,-27.43 -207.66,-49.05 -32.83,-19.06 -62.42,-44.01 -85.95,-73.34 -16.06,22.39 -32.82,44.39 -51.76,64.59 22.62,13.4 43.53,29.19 64.73,44.55 22.73,16.09 38.18,39.51 52.02,62.83 24.24,41.96 46.36,84.99 69.69,127.44 15.45,31.64 32.92,63.32 38.23,98.39 l 0,0 z" /><path
         id="path4227"
         style="fill:#ffffff;fill-opacity:1;fill-rule:nonzero;stroke:none"
         d="m 4370.73,3547.6 c 18.22,10.27 31.4,26.6 46.15,40.83 10.91,-31.49 28.54,-60.11 44.9,-89.1 24.59,-42.49 66.31,-76.63 75.9,-126.41 5.66,-26.06 -5.21,-52.57 -23.13,-71.88 -31.32,-34.43 -83.58,-47.93 -129.02,-36.77 -46.37,9.63 -82.63,44.55 -105.4,83.33 -13.84,22.59 -18.64,48.61 -25.46,73.59 -22.32,-10.96 -44.79,-21.81 -65.79,-34.92 -24.91,-17.75 -53.23,-31.19 -74.8,-53.11 -10.86,24.8 -22.67,49.3 -39.74,70.72 81.05,24.74 153.92,68.46 228.72,106.55 23.07,11.44 45.49,24.11 67.67,37.17 l 0,0" /><path
         id="path4229"
         style="fill:none;stroke:#100f0d;stroke-width:10;stroke-linecap:butt;stroke-linejoin:miter;stroke-miterlimit:4;stroke-dasharray:none;stroke-opacity:1"
         d="m 4370.73,3547.6 c 18.22,10.27 31.4,26.6 46.15,40.83 10.91,-31.49 28.54,-60.11 44.9,-89.1 24.59,-42.49 66.31,-76.63 75.9,-126.41 5.66,-26.06 -5.21,-52.57 -23.13,-71.88 -31.32,-34.43 -83.58,-47.93 -129.02,-36.77 -46.37,9.63 -82.63,44.55 -105.4,83.33 -13.84,22.59 -18.64,48.61 -25.46,73.59 -22.32,-10.96 -44.79,-21.81 -65.79,-34.92 -24.91,-17.75 -53.23,-31.19 -74.8,-53.11 -10.86,24.8 -22.67,49.3 -39.74,70.72 81.05,24.74 153.92,68.46 228.72,106.55 23.07,11.44 45.49,24.11 67.67,37.17 l 0,0 z" /><path
         id="path4231"
         style="fill:#1a1d42;fill-opacity:1;fill-rule:nonzero;stroke:none"
         d="m 4266.69,3424.17 c 49.39,24.35 99.24,58.53 157.41,54.14 44.14,-2.65 84.64,-49.79 66.92,-91.94 -11.06,-29.14 -39.34,-49.39 -69.54,-57.36 -37.08,-9.05 -76.76,0.98 -107.72,21.57 -25.21,17.16 -39.84,45.28 -47.07,73.59 l 0,0" /><path
         id="path4233"
         style="fill:#ffffff;fill-opacity:1;fill-rule:nonzero;stroke:none"
         d="m 529.898,3404.22 c 18.379,-19.41 41.356,-33.99 65.649,-45.58 65.601,-32.65 130.039,-67.71 198.16,-95.4 18.836,-9.14 39.09,-16.81 60.602,-13.79 31.511,42.94 42.117,96.34 54.289,146.65 11.613,-13.59 23.226,-27.23 34.437,-41.22 -32.269,-63.76 -67.465,-126.21 -99.129,-190.32 -61.609,38.24 -126.601,70.96 -192.859,100.98 -52.625,23.52 -103.879,52.86 -161.805,62.3 16.77,23.71 29.492,49.78 40.656,76.38 l 0,0" /><path
         id="path4235"
         style="fill:none;stroke:#100f0d;stroke-width:10;stroke-linecap:butt;stroke-linejoin:miter;stroke-miterlimit:4;stroke-dasharray:none;stroke-opacity:1"
         d="m 529.898,3404.22 c 18.379,-19.41 41.356,-33.99 65.649,-45.58 65.601,-32.65 130.039,-67.71 198.16,-95.4 18.836,-9.14 39.09,-16.81 60.602,-13.79 31.511,42.94 42.117,96.34 54.289,146.65 11.613,-13.59 23.226,-27.23 34.437,-41.22 -32.269,-63.76 -67.465,-126.21 -99.129,-190.32 -61.609,38.24 -126.601,70.96 -192.859,100.98 -52.625,23.52 -103.879,52.86 -161.805,62.3 16.77,23.71 29.492,49.78 40.656,76.38 l 0,0 z" /><path
         id="path4237"
         style="fill:#1a1d42;fill-opacity:1;fill-rule:nonzero;stroke:none"
         d="m 1289.16,3316.64 c 822.29,-0.15 1644.59,-0.1 2466.87,0 0.2,-497.55 0,-995.12 0.11,-1492.67 -0.66,-51.1 3.63,-102.98 -9.6,-153.05 -41.26,-163.04 -180.33,-297.37 -346.68,-342.06 -128.97,-31.35 -253.91,-76.18 -377.34,-123.67 -87.81,-34.13 -174.68,-70.71 -259.82,-110.71 -82.72,-39.61 -165.34,-81.07 -238.56,-135.851 -15,4.601 -25.4,17.32 -38.58,25.043 -81.35,54.038 -170.29,96.038 -259.32,136.678 -147.1,65.32 -297.65,123.66 -451.42,172.52 -39.95,12.57 -80.24,23.86 -120.94,33.69 -112.82,27.97 -213.32,97.11 -280.78,188.7 -52.42,70.91 -86.62,156.93 -84.14,244.99 0.1,518.78 -0.36,1037.61 0.2,1556.39 l 0,0" /><path
         id="path4239"
         style="fill:#ffffff;fill-opacity:1;fill-rule:nonzero;stroke:none"
         d="m 1326.93,3278.06 c 796.8,0.2 1593.54,0.24 2390.28,0 0.29,-500.98 0,-1002.01 0.14,-1502.98 0.67,-43.44 -3.98,-87.3 -19.09,-128.42 -43.57,-120.29 -143.36,-219.91 -265.53,-267.04 -37.92,-14.82 -78.52,-21.32 -117.36,-33.2 -154.12,-44.75 -304.15,-101.91 -451.51,-164.31 -115.76,-50.26 -231.5,-102.79 -336.23,-172.76 -5.66,-4.41 -11.83,1.22 -16.61,3.86 -101.82,68.12 -214.74,118.38 -327.06,167.73 -162.45,68.7 -327.98,131.98 -499.08,177.55 -165.44,33.2 -306.94,162.5 -348,321.52 -13.12,53.54 -9.23,108.99 -9.84,163.51 -0.05,478.2 0.05,956.4 -0.11,1434.54 l 0,0" /><path
         id="path4241"
         style="fill:none;stroke:#100f0d;stroke-width:10;stroke-linecap:butt;stroke-linejoin:miter;stroke-miterlimit:4;stroke-dasharray:none;stroke-opacity:1"
         d="m 1326.93,3278.06 c 796.8,0.2 1593.54,0.24 2390.28,0 0.29,-500.98 0,-1002.01 0.14,-1502.98 0.67,-43.44 -3.98,-87.3 -19.09,-128.42 -43.57,-120.29 -143.36,-219.91 -265.53,-267.04 -37.92,-14.82 -78.52,-21.32 -117.36,-33.2 -154.12,-44.75 -304.15,-101.91 -451.51,-164.31 -115.76,-50.26 -231.5,-102.79 -336.23,-172.76 -5.66,-4.41 -11.83,1.22 -16.61,3.86 -101.82,68.12 -214.74,118.38 -327.06,167.73 -162.45,68.7 -327.98,131.98 -499.08,177.55 -165.44,33.2 -306.94,162.5 -348,321.52 -13.12,53.54 -9.23,108.99 -9.84,163.51 -0.05,478.2 0.05,956.4 -0.11,1434.54 l 0,0 z" /><path
         id="path4243"
         style="fill:#ffffff;fill-opacity:1;fill-rule:nonzero;stroke:none"
         d="m 4556.32,3221.39 c 17.62,5.82 28.22,21.36 39.79,34.42 6.87,-30.66 16.25,-60.68 27.67,-90.02 -26.01,-20.89 -44.84,-48.22 -64.84,-74.19 -46.01,-61.61 -91.11,-123.81 -136.61,-185.82 -12.42,-16.33 -25.85,-32.37 -33.07,-51.73 102.31,27.63 205.28,54.9 303.14,95.26 3.5,-27.63 13.9,-53.7 24.4,-79.37 -25.65,10.47 -54.69,13.25 -81.46,4.94 -87.31,-25.43 -176.44,-45.72 -261.64,-77.61 -12.72,-8.99 -22.72,-21.02 -33.13,-32.32 -4.64,31.49 -11.71,62.99 -26.97,91.45 38.74,53.1 80.05,104.4 117.12,158.68 29.74,41.12 61.3,80.97 93.02,120.73 6.72,8.31 11.92,17.6 16.56,27.14 -71.3,-16.19 -140.89,-39.12 -211.24,-58.93 -28.93,-7.38 -55.5,-20.68 -82.26,-33.25 -4.05,26.94 -11.47,53.35 -23.08,78.1 17.06,-3.43 34.34,-8.86 52.01,-5.82 42.73,7.67 84.9,18.43 126.25,31.25 51.47,15.64 104.04,28.16 154.34,47.09 l 0,0" /><path
         id="path4245"
         style="fill:none;stroke:#100f0d;stroke-width:10;stroke-linecap:butt;stroke-linejoin:miter;stroke-miterlimit:4;stroke-dasharray:none;stroke-opacity:1"
         d="m 4556.32,3221.39 c 17.62,5.82 28.22,21.36 39.79,34.42 6.87,-30.66 16.25,-60.68 27.67,-90.02 -26.01,-20.89 -44.84,-48.22 -64.84,-74.19 -46.01,-61.61 -91.11,-123.81 -136.61,-185.82 -12.42,-16.33 -25.85,-32.37 -33.07,-51.73 102.31,27.63 205.28,54.9 303.14,95.26 3.5,-27.63 13.9,-53.7 24.4,-79.37 -25.65,10.47 -54.69,13.25 -81.46,4.94 -87.31,-25.43 -176.44,-45.72 -261.64,-77.61 -12.72,-8.99 -22.72,-21.02 -33.13,-32.32 -4.64,31.49 -11.71,62.99 -26.97,91.45 38.74,53.1 80.05,104.4 117.12,158.68 29.74,41.12 61.3,80.97 93.02,120.73 6.72,8.31 11.92,17.6 16.56,27.14 -71.3,-16.19 -140.89,-39.12 -211.24,-58.93 -28.93,-7.38 -55.5,-20.68 -82.26,-33.25 -4.05,26.94 -11.47,53.35 -23.08,78.1 17.06,-3.43 34.34,-8.86 52.01,-5.82 42.73,7.67 84.9,18.43 126.25,31.25 51.47,15.64 104.04,28.16 154.34,47.09 l 0,0 z" /><path
         id="path4247"
         style="fill:#1a1d42;fill-opacity:1;fill-rule:nonzero;stroke:none"
         d="m 1382.03,3225.78 c 276.75,0.25 553.48,-0.09 830.27,0.21 6.67,-0.45 14.39,0.92 20.2,-3.38 476.88,-329.34 953.14,-659.51 1430.21,-988.52 0.16,-158 0.36,-315.99 -0.09,-473.93 -14.86,-171.6 -154.18,-320.49 -323,-366.86 -88.18,-20.98 -174.02,-49.82 -259.17,-80.15 -2.02,0.7 -6.01,1.97 -8.03,2.65 -563.58,389.43 -1126.36,780 -1690.18,1169.01 -0.26,246.99 0.09,493.99 -0.21,740.97 l 0,0" /><path
         id="path4249"
         style="fill:#1a1d42;fill-opacity:1;fill-rule:nonzero;stroke:none"
         d="m 2326.44,3225.45 c 445.44,0.88 890.96,0.43 1336.43,0.19 -0.25,-304.11 0.29,-608.27 -0.25,-912.38 -157.27,105.14 -312.5,213.25 -469.06,319.42 -288.95,197.75 -578.47,394.66 -867.12,592.77 l 0,0" /><path
         id="path4251"
         style="fill:#ffffff;fill-opacity:1;fill-rule:nonzero;stroke:none"
         d="m 2404.31,3206.52 c 16.26,0.34 32.46,0.34 48.73,0.3 -0.05,-14.77 -0.05,-29.55 -0.4,-44.36 -15.46,10.91 -31.17,21.47 -46.87,32.03 -0.35,3.03 -1.06,9.04 -1.46,12.03 l 0,0" /><path
         id="path4253"
         style="fill:none;stroke:#100f0d;stroke-width:10;stroke-linecap:butt;stroke-linejoin:miter;stroke-miterlimit:4;stroke-dasharray:none;stroke-opacity:1"
         d="m 2404.31,3206.52 c 16.26,0.34 32.46,0.34 48.73,0.3 -0.05,-14.77 -0.05,-29.55 -0.4,-44.36 -15.46,10.91 -31.17,21.47 -46.87,32.03 -0.35,3.03 -1.06,9.04 -1.46,12.03 l 0,0 z" /><path
         id="path4255"
         style="fill:#ffffff;fill-opacity:1;fill-rule:nonzero;stroke:none"
         d="m 2483.59,3206.76 c 16.47,0 32.97,0.06 49.49,0 -0.25,-32.76 0.3,-65.52 -0.4,-98.28 -16.77,10.6 -32.88,22.05 -49.19,33.3 0.45,21.66 0.26,43.33 0.1,64.98 l 0,0" /><path
         id="path4257"
         style="fill:none;stroke:#100f0d;stroke-width:10;stroke-linecap:butt;stroke-linejoin:miter;stroke-miterlimit:4;stroke-dasharray:none;stroke-opacity:1"
         d="m 2483.59,3206.76 c 16.47,0 32.97,0.06 49.49,0 -0.25,-32.76 0.3,-65.52 -0.4,-98.28 -16.77,10.6 -32.88,22.05 -49.19,33.3 0.45,21.66 0.26,43.33 0.1,64.98 l 0,0 z" /><path
         id="path4259"
         style="fill:#ffffff;fill-opacity:1;fill-rule:nonzero;stroke:none"
         d="m 2563.33,3206.67 c 16.42,0.09 32.82,0.15 49.24,0.09 -0.26,-51 0.51,-102 -0.36,-152.96 -16.16,10.91 -32.11,22.11 -48.58,32.47 -0.66,40.16 -0.25,80.3 -0.3,120.4 l 0,0" /><path
         id="path4261"
         style="fill:none;stroke:#100f0d;stroke-width:10;stroke-linecap:butt;stroke-linejoin:miter;stroke-miterlimit:4;stroke-dasharray:none;stroke-opacity:1"
         d="m 2563.33,3206.67 c 16.42,0.09 32.82,0.15 49.24,0.09 -0.26,-51 0.51,-102 -0.36,-152.96 -16.16,10.91 -32.11,22.11 -48.58,32.47 -0.66,40.16 -0.25,80.3 -0.3,120.4 l 0,0 z" /><path
         id="path4263"
         style="fill:#ffffff;fill-opacity:1;fill-rule:nonzero;stroke:none"
         d="m 2643.17,3206.91 c 16.47,-0.15 32.92,-0.09 49.44,-0.45 -0.35,-68.89 0.14,-137.84 -0.26,-206.79 -16.86,10.52 -33.12,21.76 -49.28,33.15 0.2,58.06 0.04,116.05 0.1,174.09 l 0,0" /><path
         id="path4265"
         style="fill:none;stroke:#100f0d;stroke-width:10;stroke-linecap:butt;stroke-linejoin:miter;stroke-miterlimit:4;stroke-dasharray:none;stroke-opacity:1"
         d="m 2643.17,3206.91 c 16.47,-0.15 32.92,-0.09 49.44,-0.45 -0.35,-68.89 0.14,-137.84 -0.26,-206.79 -16.86,10.52 -33.12,21.76 -49.28,33.15 0.2,58.06 0.04,116.05 0.1,174.09 l 0,0 z" /><path
         id="path4267"
         style="fill:#ffffff;fill-opacity:1;fill-rule:nonzero;stroke:none"
         d="m 2723.02,3206.86 c 16.05,-0.1 32.12,-0.1 48.21,-0.04 -0.29,-87.09 0.25,-174.24 -0.29,-261.38 -16.17,10.57 -31.98,21.67 -47.88,32.57 -0.15,76.29 0,152.57 -0.04,228.85 l 0,0" /><path
         id="path4269"
         style="fill:none;stroke:#100f0d;stroke-width:10;stroke-linecap:butt;stroke-linejoin:miter;stroke-miterlimit:4;stroke-dasharray:none;stroke-opacity:1"
         d="m 2723.02,3206.86 c 16.05,-0.1 32.12,-0.1 48.21,-0.04 -0.29,-87.09 0.25,-174.24 -0.29,-261.38 -16.17,10.57 -31.98,21.67 -47.88,32.57 -0.15,76.29 0,152.57 -0.04,228.85 l 0,0 z" /><path
         id="path4271"
         style="fill:#ffffff;fill-opacity:1;fill-rule:nonzero;stroke:none"
         d="m 2801.89,3206.82 c 16.36,-0.06 32.83,-0.06 49.28,-0.1 -0.4,-105.43 0.46,-210.91 -0.45,-316.34 -16.11,11.45 -32.36,22.64 -48.88,33.55 -0.05,94.27 -0.1,188.6 0.05,282.89 l 0,0" /><path
         id="path4273"
         style="fill:none;stroke:#100f0d;stroke-width:10;stroke-linecap:butt;stroke-linejoin:miter;stroke-miterlimit:4;stroke-dasharray:none;stroke-opacity:1"
         d="m 2801.89,3206.82 c 16.36,-0.06 32.83,-0.06 49.28,-0.1 -0.4,-105.43 0.46,-210.91 -0.45,-316.34 -16.11,11.45 -32.36,22.64 -48.88,33.55 -0.05,94.27 -0.1,188.6 0.05,282.89 l 0,0 z" /><path
         id="path4275"
         style="fill:#ffffff;fill-opacity:1;fill-rule:nonzero;stroke:none"
         d="m 2876.23,3206.82 c 16.47,-0.06 32.92,-0.06 49.38,-0.21 -0.3,-121.9 0.21,-243.81 -0.3,-365.76 -17.12,10.07 -33.38,21.32 -49.24,33.06 0.4,111 0.05,221.95 0.16,332.91 l 0,0" /><path
         id="path4277"
         style="fill:none;stroke:#100f0d;stroke-width:10;stroke-linecap:butt;stroke-linejoin:miter;stroke-miterlimit:4;stroke-dasharray:none;stroke-opacity:1"
         d="m 2876.23,3206.82 c 16.47,-0.06 32.92,-0.06 49.38,-0.21 -0.3,-121.9 0.21,-243.81 -0.3,-365.76 -17.12,10.07 -33.38,21.32 -49.24,33.06 0.4,111 0.05,221.95 0.16,332.91 l 0,0 z" /><path
         id="path4279"
         style="fill:#ffffff;fill-opacity:1;fill-rule:nonzero;stroke:none"
         d="m 2955.6,3206.76 c 16.63,0.06 33.3,0.1 49.96,-0.3 -0.1,-129.97 -0.05,-259.95 0,-389.97 -0.05,-10.02 -1.12,-20.09 -2.03,-30.11 -15.8,10.75 -31.56,21.61 -47.47,32.17 -0.86,129.39 0,258.77 -0.46,388.21 l 0,0" /><path
         id="path4281"
         style="fill:none;stroke:#100f0d;stroke-width:10;stroke-linecap:butt;stroke-linejoin:miter;stroke-miterlimit:4;stroke-dasharray:none;stroke-opacity:1"
         d="m 2955.6,3206.76 c 16.63,0.06 33.3,0.1 49.96,-0.3 -0.1,-129.97 -0.05,-259.95 0,-389.97 -0.05,-10.02 -1.12,-20.09 -2.03,-30.11 -15.8,10.75 -31.56,21.61 -47.47,32.17 -0.86,129.39 0,258.77 -0.46,388.21 l 0,0 z" /><path
         id="path4283"
         style="fill:#ffffff;fill-opacity:1;fill-rule:nonzero;stroke:none"
         d="m 3035.75,3206.76 c 16.16,0.1 32.38,0.06 48.59,0 -0.41,-158.33 0.45,-316.72 -0.45,-475.06 -16.06,10.57 -31.82,21.51 -47.63,32.42 -4.19,80.98 -0.8,162.15 -1.87,243.23 0.76,66.46 -1.71,133.01 1.36,199.41 l 0,0" /><path
         id="path4285"
         style="fill:none;stroke:#100f0d;stroke-width:10;stroke-linecap:butt;stroke-linejoin:miter;stroke-miterlimit:4;stroke-dasharray:none;stroke-opacity:1"
         d="m 3035.75,3206.76 c 16.16,0.1 32.38,0.06 48.59,0 -0.41,-158.33 0.45,-316.72 -0.45,-475.06 -16.06,10.57 -31.82,21.51 -47.63,32.42 -4.19,80.98 -0.8,162.15 -1.87,243.23 0.76,66.46 -1.71,133.01 1.36,199.41 l 0,0 z" /><path
         id="path4287"
         style="fill:#ffffff;fill-opacity:1;fill-rule:nonzero;stroke:none"
         d="m 3114.49,3206.67 c 16.35,0.09 32.78,0.09 49.18,0.15 -0.05,-176.54 0.11,-353.01 -0.05,-529.5 -16.21,12.18 -36.56,20.49 -48.93,36.62 -0.6,164.21 -0.15,328.47 -0.2,492.73 l 0,0" /><path
         id="path4289"
         style="fill:none;stroke:#100f0d;stroke-width:10;stroke-linecap:butt;stroke-linejoin:miter;stroke-miterlimit:4;stroke-dasharray:none;stroke-opacity:1"
         d="m 3114.49,3206.67 c 16.35,0.09 32.78,0.09 49.18,0.15 -0.05,-176.54 0.11,-353.01 -0.05,-529.5 -16.21,12.18 -36.56,20.49 -48.93,36.62 -0.6,164.21 -0.15,328.47 -0.2,492.73 l 0,0 z" /><path
         id="path4291"
         style="fill:#ffffff;fill-opacity:1;fill-rule:nonzero;stroke:none"
         d="m 3194.38,3206.76 c 16.41,0.06 32.82,0 49.28,-0.09 -0.2,-194.48 0.31,-388.96 -0.25,-583.38 -16.71,10.31 -32.62,21.71 -48.99,32.46 -0.24,183.67 -0.14,367.35 -0.04,551.01 l 0,0" /><path
         id="path4293"
         style="fill:none;stroke:#100f0d;stroke-width:10;stroke-linecap:butt;stroke-linejoin:miter;stroke-miterlimit:4;stroke-dasharray:none;stroke-opacity:1"
         d="m 3194.38,3206.76 c 16.41,0.06 32.82,0 49.28,-0.09 -0.2,-194.48 0.31,-388.96 -0.25,-583.38 -16.71,10.31 -32.62,21.71 -48.99,32.46 -0.24,183.67 -0.14,367.35 -0.04,551.01 l 0,0 z" /><path
         id="path4295"
         style="fill:#ffffff;fill-opacity:1;fill-rule:nonzero;stroke:none"
         d="m 3273.82,3206.76 c 16.1,0.1 32.21,0.1 48.38,-0.04 3.17,-72.86 0.5,-145.97 1.4,-218.94 0,-115.69 0,-231.43 0,-347.18 -0.14,-23.91 0.81,-47.88 -1.61,-71.73 -16.21,10.85 -32.22,21.95 -48.17,33.05 0,201.61 0,403.23 0,604.84 l 0,0" /><path
         id="path4297"
         style="fill:none;stroke:#100f0d;stroke-width:10;stroke-linecap:butt;stroke-linejoin:miter;stroke-miterlimit:4;stroke-dasharray:none;stroke-opacity:1"
         d="m 3273.82,3206.76 c 16.1,0.1 32.21,0.1 48.38,-0.04 3.17,-72.86 0.5,-145.97 1.4,-218.94 0,-115.69 0,-231.43 0,-347.18 -0.14,-23.91 0.81,-47.88 -1.61,-71.73 -16.21,10.85 -32.22,21.95 -48.17,33.05 0,201.61 0,403.23 0,604.84 l 0,0 z" /><path
         id="path4299"
         style="fill:#ffffff;fill-opacity:1;fill-rule:nonzero;stroke:none"
         d="m 3353.81,3206.61 c 16.15,0.21 32.42,0.15 48.63,0.21 -0.51,-230.96 0.5,-461.87 -0.51,-692.83 -14.14,10.03 -28.79,19.42 -42.82,29.59 -7.12,3.57 -6.47,11.89 -6.67,18.39 -0.35,42.48 0.3,85.03 1.37,127.53 -4.14,61.91 2.07,123.91 -1.32,185.82 -1.05,48.95 2.78,97.79 0,146.7 4.3,61.51 -3.08,123.14 1.32,184.59 l 0,0" /><path
         id="path4301"
         style="fill:none;stroke:#100f0d;stroke-width:10;stroke-linecap:butt;stroke-linejoin:miter;stroke-miterlimit:4;stroke-dasharray:none;stroke-opacity:1"
         d="m 3353.81,3206.61 c 16.15,0.21 32.42,0.15 48.63,0.21 -0.51,-230.96 0.5,-461.87 -0.51,-692.83 -14.14,10.03 -28.79,19.42 -42.82,29.59 -7.12,3.57 -6.47,11.89 -6.67,18.39 -0.35,42.48 0.3,85.03 1.37,127.53 -4.14,61.91 2.07,123.91 -1.32,185.82 -1.05,48.95 2.78,97.79 0,146.7 4.3,61.51 -3.08,123.14 1.32,184.59 l 0,0 z" /><path
         id="path4303"
         style="fill:#ffffff;fill-opacity:1;fill-rule:nonzero;stroke:none"
         d="m 3432.38,3206.61 c 16.47,0.25 32.98,0.21 49.5,0.21 -0.41,-249.01 0.7,-498 -0.56,-747.01 -16.26,11.3 -32.62,22.4 -48.89,33.65 0.06,237.7 0.21,475.46 -0.05,713.15 l 0,0" /><path
         id="path4305"
         style="fill:none;stroke:#100f0d;stroke-width:10;stroke-linecap:butt;stroke-linejoin:miter;stroke-miterlimit:4;stroke-dasharray:none;stroke-opacity:1"
         d="m 3432.38,3206.61 c 16.47,0.25 32.98,0.21 49.5,0.21 -0.41,-249.01 0.7,-498 -0.56,-747.01 -16.26,11.3 -32.62,22.4 -48.89,33.65 0.06,237.7 0.21,475.46 -0.05,713.15 l 0,0 z" /><path
         id="path4307"
         style="fill:#ffffff;fill-opacity:1;fill-rule:nonzero;stroke:none"
         d="m 3512.37,3206.76 c 16.47,0.06 32.93,0.1 49.45,-0.15 -0.31,-266.88 0.3,-533.79 -0.31,-800.73 -16.92,10.37 -33.02,21.85 -49.24,33.15 0.41,255.9 0.1,511.79 0.1,767.73 l 0,0" /><path
         id="path4309"
         style="fill:none;stroke:#100f0d;stroke-width:10;stroke-linecap:butt;stroke-linejoin:miter;stroke-miterlimit:4;stroke-dasharray:none;stroke-opacity:1"
         d="m 3512.37,3206.76 c 16.47,0.06 32.93,0.1 49.45,-0.15 -0.31,-266.88 0.3,-533.79 -0.31,-800.73 -16.92,10.37 -33.02,21.85 -49.24,33.15 0.41,255.9 0.1,511.79 0.1,767.73 l 0,0 z" /><path
         id="path4311"
         style="fill:#ffffff;fill-opacity:1;fill-rule:nonzero;stroke:none"
         d="m 3586.71,3206.76 c 16.05,0 32.12,0.06 48.23,-0.04 -0.2,-283.82 0.66,-567.69 -0.41,-851.51 -15.7,11.06 -31.61,21.82 -47.57,32.38 -0.4,273.05 0.1,546.11 -0.25,819.17 l 0,0" /><path
         id="path4313"
         style="fill:none;stroke:#100f0d;stroke-width:10;stroke-linecap:butt;stroke-linejoin:miter;stroke-miterlimit:4;stroke-dasharray:none;stroke-opacity:1"
         d="m 3586.71,3206.76 c 16.05,0 32.12,0.06 48.23,-0.04 -0.2,-283.82 0.66,-567.69 -0.41,-851.51 -15.7,11.06 -31.61,21.82 -47.57,32.38 -0.4,273.05 0.1,546.11 -0.25,819.17 l 0,0 z" /><path
         id="path4315"
         style="fill:#ffffff;fill-opacity:1;fill-rule:nonzero;stroke:none"
         d="m 661.301,3093.94 c 52.621,6.27 107.512,4.96 156.394,27.54 -10.152,-29.54 -20.957,-58.87 -27.574,-89.39 -45.043,1.38 -89.988,4.5 -135.031,2.99 -13.895,-43.63 -27.883,-87.14 -40.957,-131.01 35.398,-26.7 72.972,-51.98 115.039,-67.72 -6.57,-16.87 -11.617,-34.29 -15.656,-51.89 -99.184,71.98 -197.809,144.8 -300.02,212.72 -13.328,7.92 -29.348,2.01 -43.734,1.02 14.894,30.08 22.523,62.75 31.961,94.57 86.261,-7.38 173.32,-4.59 259.578,1.17 l 0,0" /><path
         id="path4317"
         style="fill:none;stroke:#100f0d;stroke-width:10;stroke-linecap:butt;stroke-linejoin:miter;stroke-miterlimit:4;stroke-dasharray:none;stroke-opacity:1"
         d="m 661.301,3093.94 c 52.621,6.27 107.512,4.96 156.394,27.54 -10.152,-29.54 -20.957,-58.87 -27.574,-89.39 -45.043,1.38 -89.988,4.5 -135.031,2.99 -13.895,-43.63 -27.883,-87.14 -40.957,-131.01 35.398,-26.7 72.972,-51.98 115.039,-67.72 -6.57,-16.87 -11.617,-34.29 -15.656,-51.89 -99.184,71.98 -197.809,144.8 -300.02,212.72 -13.328,7.92 -29.348,2.01 -43.734,1.02 14.894,30.08 22.523,62.75 31.961,94.57 86.261,-7.38 173.32,-4.59 259.578,1.17 l 0,0 z" /><path
         id="path4319"
         style="fill:#ffffff;fill-opacity:1;fill-rule:nonzero;stroke:none"
         d="m 2020.96,3111.6 c 47.07,-8.94 95.49,-5.23 142.6,1.32 -14.43,-23.03 -36.4,-42.49 -42.52,-69.68 -9.33,-42.34 -3.98,-85.92 -6.35,-128.85 0.05,-61.91 -1.37,-123.81 -0.91,-185.78 -0.71,-45.22 4.44,-90.21 5.3,-135.39 8.68,-22.69 24.74,-42.3 36.71,-63.57 -41.76,3.03 -83.78,11.04 -125.69,4.44 -9.9,-1.02 -19.79,-4.64 -29.85,-3.27 -57.57,69.24 -110.39,142.16 -169.13,210.51 -57.97,68.42 -111.65,140.06 -165.33,211.64 -7.58,10.03 -16.72,18.83 -25.91,27.38 -1.96,-116.57 -1.51,-233.15 -0.04,-349.73 1.46,-34.33 9.79,-67.78 16.06,-101.42 -23.44,0.68 -46.72,4.06 -70.2,4.45 -23.03,-0.54 -45.95,-3.38 -68.93,-4.5 13.28,22.16 30.19,43.48 33.93,69.59 7.38,44.5 7.43,89.78 8.64,134.77 -1.37,76.63 0.04,153.26 -0.86,229.88 -1.31,26.99 -0.2,54.32 -5.8,80.93 -5.16,23.86 -24.45,41.07 -34.65,62.74 51.46,-4.5 103.22,-4.5 154.68,0.23 13.94,-34.76 37.67,-64.49 60.3,-94.31 68.43,-88.22 140.23,-173.95 210.12,-261.09 31.37,-36.76 58.89,-76.76 93.64,-110.76 1.05,81.33 0.14,162.65 0.45,243.97 0.14,37.65 -4.59,75.15 -4.75,112.81 0.11,38.24 -7.92,75.79 -11.51,113.69 l 0,0" /><path
         id="path4321"
         style="fill:none;stroke:#100f0d;stroke-width:10;stroke-linecap:butt;stroke-linejoin:miter;stroke-miterlimit:4;stroke-dasharray:none;stroke-opacity:1"
         d="m 2020.96,3111.6 c 47.07,-8.94 95.49,-5.23 142.6,1.32 -14.43,-23.03 -36.4,-42.49 -42.52,-69.68 -9.33,-42.34 -3.98,-85.92 -6.35,-128.85 0.05,-61.91 -1.37,-123.81 -0.91,-185.78 -0.71,-45.22 4.44,-90.21 5.3,-135.39 8.68,-22.69 24.74,-42.3 36.71,-63.57 -41.76,3.03 -83.78,11.04 -125.69,4.44 -9.9,-1.02 -19.79,-4.64 -29.85,-3.27 -57.57,69.24 -110.39,142.16 -169.13,210.51 -57.97,68.42 -111.65,140.06 -165.33,211.64 -7.58,10.03 -16.72,18.83 -25.91,27.38 -1.96,-116.57 -1.51,-233.15 -0.04,-349.73 1.46,-34.33 9.79,-67.78 16.06,-101.42 -23.44,0.68 -46.72,4.06 -70.2,4.45 -23.03,-0.54 -45.95,-3.38 -68.93,-4.5 13.28,22.16 30.19,43.48 33.93,69.59 7.38,44.5 7.43,89.78 8.64,134.77 -1.37,76.63 0.04,153.26 -0.86,229.88 -1.31,26.99 -0.2,54.32 -5.8,80.93 -5.16,23.86 -24.45,41.07 -34.65,62.74 51.46,-4.5 103.22,-4.5 154.68,0.23 13.94,-34.76 37.67,-64.49 60.3,-94.31 68.43,-88.22 140.23,-173.95 210.12,-261.09 31.37,-36.76 58.89,-76.76 93.64,-110.76 1.05,81.33 0.14,162.65 0.45,243.97 0.14,37.65 -4.59,75.15 -4.75,112.81 0.11,38.24 -7.92,75.79 -11.51,113.69 l 0,0 z" /><path
         id="path4323"
         style="fill:#1a1d42;fill-opacity:1;fill-rule:nonzero;stroke:none"
         d="m 446.422,3023.44 c 60.25,1.22 120.238,6.11 180.488,6.79 -9.801,-37.46 -20.152,-74.76 -30.355,-112.17 -51.004,33.79 -101.352,68.66 -150.133,105.38 l 0,0" /><path
         id="path4325"
         style="fill:#ffffff;fill-opacity:1;fill-rule:nonzero;stroke:none"
         d="m 315.02,2777.23 c 15.503,-12.08 30.91,-26.36 51.41,-29.54 42.519,-6.02 85.695,-5.87 128.418,-10.12 56.816,-3.37 113.625,-8.7 170.59,-6.65 14.496,3.12 27.019,11.74 40.199,18 -4.949,-31.01 -10.203,-62.4 -5.602,-93.89 -53.586,-35.4 -108.43,-68.91 -160.699,-106.11 -42.164,-27.98 -84.633,-55.55 -128.164,-81.57 -11.77,-7 -22.625,-15.31 -32.774,-24.35 35.801,-6.96 72.618,-5.04 108.774,-9.45 66.308,-0.53 133.121,-13.78 198.922,-0.43 -4.492,-27.78 -8.535,-55.94 -5.203,-84.16 -27.825,25.47 -67.012,28.17 -103.075,31.29 -34.433,5.68 -69.48,2.7 -103.972,7.29 -46.817,1.03 -93.578,7.73 -140.399,3.62 -14.89,-1.62 -27.215,-10.41 -39.836,-17.5 3.282,31.14 3.129,62.49 5.805,93.69 25.957,9.29 48.883,24.5 72.012,38.82 65.246,42.39 129.586,86.12 194.375,129.19 21.113,15.31 45.297,27 63.226,46.17 -38.531,6.26 -77.765,4.79 -116.55,8.75 -32.727,3.27 -65.602,2.05 -98.375,3.87 -34.594,4.1 -69.293,0.48 -103.829,-1.96 6.817,27.87 6.11,56.63 4.747,85.04 l 0,0" /><path
         id="path4327"
         style="fill:none;stroke:#100f0d;stroke-width:10;stroke-linecap:butt;stroke-linejoin:miter;stroke-miterlimit:4;stroke-dasharray:none;stroke-opacity:1"
         d="m 315.02,2777.23 c 15.503,-12.08 30.91,-26.36 51.41,-29.54 42.519,-6.02 85.695,-5.87 128.418,-10.12 56.816,-3.37 113.625,-8.7 170.59,-6.65 14.496,3.12 27.019,11.74 40.199,18 -4.949,-31.01 -10.203,-62.4 -5.602,-93.89 -53.586,-35.4 -108.43,-68.91 -160.699,-106.11 -42.164,-27.98 -84.633,-55.55 -128.164,-81.57 -11.77,-7 -22.625,-15.31 -32.774,-24.35 35.801,-6.96 72.618,-5.04 108.774,-9.45 66.308,-0.53 133.121,-13.78 198.922,-0.43 -4.492,-27.78 -8.535,-55.94 -5.203,-84.16 -27.825,25.47 -67.012,28.17 -103.075,31.29 -34.433,5.68 -69.48,2.7 -103.972,7.29 -46.817,1.03 -93.578,7.73 -140.399,3.62 -14.89,-1.62 -27.215,-10.41 -39.836,-17.5 3.282,31.14 3.129,62.49 5.805,93.69 25.957,9.29 48.883,24.5 72.012,38.82 65.246,42.39 129.586,86.12 194.375,129.19 21.113,15.31 45.297,27 63.226,46.17 -38.531,6.26 -77.765,4.79 -116.55,8.75 -32.727,3.27 -65.602,2.05 -98.375,3.87 -34.594,4.1 -69.293,0.48 -103.829,-1.96 6.817,27.87 6.11,56.63 4.747,85.04 l 0,0 z" /><path
         id="path4329"
         style="fill:#ffffff;fill-opacity:1;fill-rule:nonzero;stroke:none"
         d="m 4487.13,2759.13 c 52.46,15.25 107.57,-0.59 154.37,-24.44 48.94,-27.48 85.95,-75.41 96.66,-129.5 3.24,-22 3.14,-44.68 11.06,-65.86 11.77,-36.04 16.11,-76 1.11,-111.89 -18.53,-52.86 -71.71,-85.61 -124.48,-101.02 -39.8,-7.78 -82.27,-10.81 -121.3,2.06 -52.36,15.84 -98.78,52.31 -121.45,101.17 -19.96,37.45 -16.57,80.78 -28.59,120.44 -12.01,39.61 -12.32,83.86 8.69,120.73 22.93,47.63 73.13,75.8 123.93,88.31 l 0,0" /><path
         id="path4331"
         style="fill:none;stroke:#100f0d;stroke-width:10;stroke-linecap:butt;stroke-linejoin:miter;stroke-miterlimit:4;stroke-dasharray:none;stroke-opacity:1"
         d="m 4487.13,2759.13 c 52.46,15.25 107.57,-0.59 154.37,-24.44 48.94,-27.48 85.95,-75.41 96.66,-129.5 3.24,-22 3.14,-44.68 11.06,-65.86 11.77,-36.04 16.11,-76 1.11,-111.89 -18.53,-52.86 -71.71,-85.61 -124.48,-101.02 -39.8,-7.78 -82.27,-10.81 -121.3,2.06 -52.36,15.84 -98.78,52.31 -121.45,101.17 -19.96,37.45 -16.57,80.78 -28.59,120.44 -12.01,39.61 -12.32,83.86 8.69,120.73 22.93,47.63 73.13,75.8 123.93,88.31 l 0,0 z" /><path
         id="path4333"
         style="fill:#1a1d42;fill-opacity:1;fill-rule:nonzero;stroke:none"
         d="m 4511.67,2691.7 c 47.77,9.43 97.57,-4.16 139.33,-26.9 46.4,-25.46 81,-74.27 79.54,-127.09 0.86,-25.03 -12.43,-47.18 -22.88,-69.19 -19.7,-41.86 -66.87,-63.08 -110.65,-73.4 -23.68,-3.23 -47.97,-4.2 -71.81,-2.35 -59.18,8.42 -114.73,45.09 -139.73,98.39 -12.12,27.43 -18.49,58.88 -8.79,87.87 11.16,29.93 27.07,59.86 54.34,78.93 23.33,17.69 51.62,28.65 80.65,33.74 l 0,0" /><path
         id="path4335"
         style="fill:#ffffff;fill-opacity:1;fill-rule:nonzero;stroke:none"
         d="m 2524.9,2650.58 c 48.12,9.28 97.67,11.1 146.55,7.33 43.58,-6.8 87.91,-22.3 119.94,-52.81 16.51,-15.21 24.89,-36.1 34.59,-55.55 -45.35,-4.5 -91,-6.89 -136.15,-13.35 -12.02,21.03 -23.48,45.33 -47.72,55.5 -50.55,21.96 -107.36,31.1 -162.46,26.11 -66.51,-12.86 -130.09,-47.14 -170.74,-100.49 -24.34,-33.1 -41.16,-71.3 -50.04,-111 -9.35,-51.74 -4.25,-105.68 15.65,-154.67 14.09,-36.83 31.46,-74.62 63.53,-100.2 33.47,-26.99 73.42,-45.52 114.44,-59.17 37.41,-13.15 77.41,-1.41 114.01,8.41 41.32,11.64 84.54,32.47 102.88,72.62 25.4,53.89 19.04,115.64 13.43,172.96 41.12,-4.25 82.56,-3.92 123.72,-0.1 -11.26,-49.58 -15.65,-100.1 -21.4,-150.47 -4.15,-46.45 20.45,-88.6 37.87,-130.26 -38.73,3.22 -77.16,11.2 -116.2,9.58 -59.39,2.69 -117.46,-14.18 -176.7,-13.79 -65.55,4.4 -131.35,-13.4 -196.5,-0.63 -69.94,12.86 -128.47,63.12 -157.7,124.99 -19.55,42.88 -30.86,90.12 -28.39,137.16 -2.31,69.93 11.27,143.23 53.12,201.61 39.45,50.96 96.92,88.22 160.39,104.75 36.92,9.48 75.25,13.84 113.43,13.5 17.11,0.29 33.64,5.28 50.45,7.97 l 0,0" /><path
         id="path4337"
         style="fill:none;stroke:#100f0d;stroke-width:10;stroke-linecap:butt;stroke-linejoin:miter;stroke-miterlimit:4;stroke-dasharray:none;stroke-opacity:1"
         d="m 2524.9,2650.58 c 48.12,9.28 97.67,11.1 146.55,7.33 43.58,-6.8 87.91,-22.3 119.94,-52.81 16.51,-15.21 24.89,-36.1 34.59,-55.55 -45.35,-4.5 -91,-6.89 -136.15,-13.35 -12.02,21.03 -23.48,45.33 -47.72,55.5 -50.55,21.96 -107.36,31.1 -162.46,26.11 -66.51,-12.86 -130.09,-47.14 -170.74,-100.49 -24.34,-33.1 -41.16,-71.3 -50.04,-111 -9.35,-51.74 -4.25,-105.68 15.65,-154.67 14.09,-36.83 31.46,-74.62 63.53,-100.2 33.47,-26.99 73.42,-45.52 114.44,-59.17 37.41,-13.15 77.41,-1.41 114.01,8.41 41.32,11.64 84.54,32.47 102.88,72.62 25.4,53.89 19.04,115.64 13.43,172.96 41.12,-4.25 82.56,-3.92 123.72,-0.1 -11.26,-49.58 -15.65,-100.1 -21.4,-150.47 -4.15,-46.45 20.45,-88.6 37.87,-130.26 -38.73,3.22 -77.16,11.2 -116.2,9.58 -59.39,2.69 -117.46,-14.18 -176.7,-13.79 -65.55,4.4 -131.35,-13.4 -196.5,-0.63 -69.94,12.86 -128.47,63.12 -157.7,124.99 -19.55,42.88 -30.86,90.12 -28.39,137.16 -2.31,69.93 11.27,143.23 53.12,201.61 39.45,50.96 96.92,88.22 160.39,104.75 36.92,9.48 75.25,13.84 113.43,13.5 17.11,0.29 33.64,5.28 50.45,7.97 l 0,0 z" /><path
         id="path4339"
         style="fill:#1a1d42;fill-opacity:1;fill-rule:nonzero;stroke:none"
         d="m 1382.29,2404.95 c 334.91,-234.97 669.98,-469.69 1004.99,-704.55 200.49,-141.17 402.04,-280.98 602.07,-422.74 -163.37,-59.86 -329.31,-123.03 -467.48,-229.1 -73.07,56.77 -158.42,96.04 -241.95,135.94 -115.74,52.96 -234.17,100.26 -354.51,142.5 -67.97,23.42 -136.35,46.16 -206.49,62.78 -84.94,20.36 -162.41,66.51 -221.8,128.41 -68.02,70.62 -114.69,164.07 -115.03,261.82 0.2,208.31 -0.21,416.63 0.2,624.94 l 0,0" /><path
         id="path4341"
         style="fill:#ffffff;fill-opacity:1;fill-rule:nonzero;stroke:none"
         d="M 0,2394.24 C 5.09766,2181.43 37.5195,1969.1 98.9297,1764.61 212.855,1381.18 426.57,1026.11 714.418,740.73 960.969,494.129 1262.09,299.121 1591.45,172.32 1869.72,64.6406 2168.13,7.24219 2467.53,0 L 0,0 0,2394.24" /><path
         id="path4343"
         style="fill:#ffffff;fill-opacity:1;fill-rule:nonzero;stroke:none"
         d="m 4933.05,1706.71 c 72.81,222.2 111.39,454.52 116.95,687.48 L 5050,0 2577.47,0 c 236.69,5.32031 472.82,41.5195 698.97,109.871 393.14,118.199 755.42,331.789 1043.98,616.149 280.99,273.39 492.73,612.92 612.63,980.69 l 0,0" /><path
         id="path4345"
         style="fill:#ffffff;fill-opacity:1;fill-rule:nonzero;stroke:none"
         d="m 1402.09,2366.71 c 9.84,-6.65 19.69,-13.4 29.49,-20.25 -0.76,-231.69 0.9,-463.41 -0.87,-695.1 -18.98,41.95 -29.69,87.62 -28.98,133.49 0.3,193.99 -0.4,387.92 0.36,581.86 l 0,0" /><path
         id="path4347"
         style="fill:none;stroke:#100f0d;stroke-width:10;stroke-linecap:butt;stroke-linejoin:miter;stroke-miterlimit:4;stroke-dasharray:none;stroke-opacity:1"
         d="m 1402.09,2366.71 c 9.84,-6.65 19.69,-13.4 29.49,-20.25 -0.76,-231.69 0.9,-463.41 -0.87,-695.1 -18.98,41.95 -29.69,87.62 -28.98,133.49 0.3,193.99 -0.4,387.92 0.36,581.86 l 0,0 z" /><path
         id="path4349"
         style="fill:#ffffff;fill-opacity:1;fill-rule:nonzero;stroke:none"
         d="m 1456.77,2328.48 c 16.42,-11.56 33.12,-22.7 49.25,-34.68 -0.62,-251.35 0.54,-502.74 -0.57,-754.08 -18.63,19.65 -38.03,40.68 -48.48,65.51 -0.76,241.04 -0.4,482.16 -0.2,723.25 l 0,0" /><path
         id="path4351"
         style="fill:none;stroke:#100f0d;stroke-width:10;stroke-linecap:butt;stroke-linejoin:miter;stroke-miterlimit:4;stroke-dasharray:none;stroke-opacity:1"
         d="m 1456.77,2328.48 c 16.42,-11.56 33.12,-22.7 49.25,-34.68 -0.62,-251.35 0.54,-502.74 -0.57,-754.08 -18.63,19.65 -38.03,40.68 -48.48,65.51 -0.76,241.04 -0.4,482.16 -0.2,723.25 l 0,0 z" /><path
         id="path4353"
         style="fill:#ffffff;fill-opacity:1;fill-rule:nonzero;stroke:none"
         d="m 4699.18,2316.79 c 18.98,-8.27 38.28,-15.85 57.67,-23.14 -5.05,-38.68 -16.42,-76.23 -21.31,-114.96 -8.89,-65.92 -23.99,-131.48 -22.38,-198.34 0.21,-11.1 4.59,-21.56 7.83,-32.13 -17.97,4.7 -36.01,9.01 -53.63,14.63 8.94,42.2 14.49,84.98 18.18,127.92 -78.83,23.18 -160.75,33.74 -242.1,44.54 -36.25,5.92 -73.07,3.28 -109.63,3.82 6.51,28.41 12.67,57.16 12.47,86.41 74.03,-15.7 148.27,-30.91 223.67,-39.27 25.29,-3.76 51.09,-1.61 76.5,-5.09 17.68,-2.49 35.4,0.1 53.03,2.11 7.12,44.06 20.2,90.85 -0.3,133.5 l 0,0" /><path
         id="path4355"
         style="fill:none;stroke:#100f0d;stroke-width:10;stroke-linecap:butt;stroke-linejoin:miter;stroke-miterlimit:4;stroke-dasharray:none;stroke-opacity:1"
         d="m 4699.18,2316.79 c 18.98,-8.27 38.28,-15.85 57.67,-23.14 -5.05,-38.68 -16.42,-76.23 -21.31,-114.96 -8.89,-65.92 -23.99,-131.48 -22.38,-198.34 0.21,-11.1 4.59,-21.56 7.83,-32.13 -17.97,4.7 -36.01,9.01 -53.63,14.63 8.94,42.2 14.49,84.98 18.18,127.92 -78.83,23.18 -160.75,33.74 -242.1,44.54 -36.25,5.92 -73.07,3.28 -109.63,3.82 6.51,28.41 12.67,57.16 12.47,86.41 74.03,-15.7 148.27,-30.91 223.67,-39.27 25.29,-3.76 51.09,-1.61 76.5,-5.09 17.68,-2.49 35.4,0.1 53.03,2.11 7.12,44.06 20.2,90.85 -0.3,133.5 l 0,0 z" /><path
         id="path4357"
         style="fill:#ffffff;fill-opacity:1;fill-rule:nonzero;stroke:none"
         d="m 466.621,2299.81 c 44.137,10.67 91.703,6.17 132.813,-12.71 54.492,-23.38 95.394,-72.86 108.121,-129.14 7.472,-36.38 29.34,-68.66 33.23,-105.87 10.305,-50.37 -13.734,-103.43 -52.773,-136.67 -36.258,-27.83 -80.547,-48.32 -127.41,-49.88 -68.731,-0.94 -139.079,28.16 -179.879,82.83 -20.301,25.38 -30.098,56.52 -36.16,87.64 -12.219,32.8 -31.614,64.68 -30.301,100.83 -3.184,40.03 14.593,80.18 44.289,107.71 29.187,28.27 67.058,48.86 108.07,55.26 l 0,0" /><path
         id="path4359"
         style="fill:none;stroke:#100f0d;stroke-width:10;stroke-linecap:butt;stroke-linejoin:miter;stroke-miterlimit:4;stroke-dasharray:none;stroke-opacity:1"
         d="m 466.621,2299.81 c 44.137,10.67 91.703,6.17 132.813,-12.71 54.492,-23.38 95.394,-72.86 108.121,-129.14 7.472,-36.38 29.34,-68.66 33.23,-105.87 10.305,-50.37 -13.734,-103.43 -52.773,-136.67 -36.258,-27.83 -80.547,-48.32 -127.41,-49.88 -68.731,-0.94 -139.079,28.16 -179.879,82.83 -20.301,25.38 -30.098,56.52 -36.16,87.64 -12.219,32.8 -31.614,64.68 -30.301,100.83 -3.184,40.03 14.593,80.18 44.289,107.71 29.187,28.27 67.058,48.86 108.07,55.26 l 0,0 z" /><path
         id="path4361"
         style="fill:#ffffff;fill-opacity:1;fill-rule:nonzero;stroke:none"
         d="m 1536.72,2272.28 c 16.15,-10.81 32.12,-21.9 47.66,-33.44 -0.2,-256.24 0.77,-512.42 -0.44,-768.65 -16.52,11.63 -32.18,24.24 -47.43,37.4 0,254.86 -0.4,509.77 0.21,764.69 l 0,0" /><path
         id="path4363"
         style="fill:none;stroke:#100f0d;stroke-width:10;stroke-linecap:butt;stroke-linejoin:miter;stroke-miterlimit:4;stroke-dasharray:none;stroke-opacity:1"
         d="m 1536.72,2272.28 c 16.15,-10.81 32.12,-21.9 47.66,-33.44 -0.2,-256.24 0.77,-512.42 -0.44,-768.65 -16.52,11.63 -32.18,24.24 -47.43,37.4 0,254.86 -0.4,509.77 0.21,764.69 l 0,0 z" /><path
         id="path4365"
         style="fill:#1a1d42;fill-opacity:1;fill-rule:nonzero;stroke:none"
         d="m 516.563,2235.57 c 80.699,8.59 168.218,-41.04 188.824,-119.22 11.105,-35.02 -1.672,-71.2 -17.782,-102.55 -26.41,-43.67 -76.605,-69.78 -126.953,-78.49 -54.691,-6.16 -112.765,7.48 -156.3,40.69 -30.149,23.77 -50.45,59.6 -53.278,97.21 -2.172,20.39 6.364,39.42 12.071,58.54 9.445,39.36 44.593,67.19 80.5,84.21 22.57,11.68 47.976,15.84 72.918,19.61 l 0,0" /><path
         id="path4367"
         style="fill:#ffffff;fill-opacity:1;fill-rule:nonzero;stroke:none"
         d="m 1615.55,2216.93 c 16.45,-10.86 32.42,-22.4 48.87,-33.4 -0.08,-252.08 0.72,-504.16 -0.4,-756.24 -16.21,8.22 -34.84,13.4 -48.42,25.33 -0.66,254.77 -0.56,509.54 -0.05,764.31 l 0,0" /><path
         id="path4369"
         style="fill:none;stroke:#100f0d;stroke-width:10;stroke-linecap:butt;stroke-linejoin:miter;stroke-miterlimit:4;stroke-dasharray:none;stroke-opacity:1"
         d="m 1615.55,2216.93 c 16.45,-10.86 32.42,-22.4 48.87,-33.4 -0.08,-252.08 0.72,-504.16 -0.4,-756.24 -16.21,8.22 -34.84,13.4 -48.42,25.33 -0.66,254.77 -0.56,509.54 -0.05,764.31 l 0,0 z" /><path
         id="path4371"
         style="fill:#ffffff;fill-opacity:1;fill-rule:nonzero;stroke:none"
         d="m 2867.74,2180.3 c 45.45,-5.76 91.36,-3.9 136.86,0.3 -4,-31.84 -13.33,-62.89 -15.36,-95.01 -3.68,-52.52 -7.12,-105.14 -6.15,-157.81 112.01,0.05 224.07,-0.39 336.07,0.26 0.11,55.09 -3.27,110.21 -6.82,165.22 -1.26,30.03 -14.33,57.71 -20.09,86.9 47.87,-4.07 96,-4.11 143.92,0.14 -20.19,-54.52 -21.36,-113.25 -20.96,-170.52 0.61,-93 -1.51,-186 1.77,-278.92 2.43,-44.41 7.79,-88.85 22.12,-131.29 -43.84,1.71 -87.92,4.11 -131.25,-4.3 0.8,17.55 1.47,35.11 4.04,52.46 10.4,72.33 7.33,145.48 7.78,218.29 -112.47,0.1 -224.98,0.25 -337.44,-0.09 -1.72,-54.87 3.28,-109.48 6.46,-164.26 4.34,-35.25 4.34,-71.54 16.21,-105.58 -43.63,4.16 -87.52,7.09 -131.05,0.35 19.9,112.32 13.99,226.65 12.13,340.01 1.3,81.51 -0.81,163.9 -18.24,243.85 l 0,0" /><path
         id="path4373"
         style="fill:none;stroke:#100f0d;stroke-width:10;stroke-linecap:butt;stroke-linejoin:miter;stroke-miterlimit:4;stroke-dasharray:none;stroke-opacity:1"
         d="m 2867.74,2180.3 c 45.45,-5.76 91.36,-3.9 136.86,0.3 -4,-31.84 -13.33,-62.89 -15.36,-95.01 -3.68,-52.52 -7.12,-105.14 -6.15,-157.81 112.01,0.05 224.07,-0.39 336.07,0.26 0.11,55.09 -3.27,110.21 -6.82,165.22 -1.26,30.03 -14.33,57.71 -20.09,86.9 47.87,-4.07 96,-4.11 143.92,0.14 -20.19,-54.52 -21.36,-113.25 -20.96,-170.52 0.61,-93 -1.51,-186 1.77,-278.92 2.43,-44.41 7.79,-88.85 22.12,-131.29 -43.84,1.71 -87.92,4.11 -131.25,-4.3 0.8,17.55 1.47,35.11 4.04,52.46 10.4,72.33 7.33,145.48 7.78,218.29 -112.47,0.1 -224.98,0.25 -337.44,-0.09 -1.72,-54.87 3.28,-109.48 6.46,-164.26 4.34,-35.25 4.34,-71.54 16.21,-105.58 -43.63,4.16 -87.52,7.09 -131.05,0.35 19.9,112.32 13.99,226.65 12.13,340.01 1.3,81.51 -0.81,163.9 -18.24,243.85 l 0,0 z" /><path
         id="path4375"
         style="fill:#ffffff;fill-opacity:1;fill-rule:nonzero;stroke:none"
         d="m 1695.13,2160.94 c 16.67,-10.75 32.68,-22.35 48.88,-33.65 0.05,-241.22 0.31,-482.39 -0.09,-723.62 -16.57,3.72 -32.92,8.22 -49.15,12.92 0.36,248.11 -0.39,496.23 0.36,744.35 l 0,0" /><path
         id="path4377"
         style="fill:none;stroke:#100f0d;stroke-width:10;stroke-linecap:butt;stroke-linejoin:miter;stroke-miterlimit:4;stroke-dasharray:none;stroke-opacity:1"
         d="m 1695.13,2160.94 c 16.67,-10.75 32.68,-22.35 48.88,-33.65 0.05,-241.22 0.31,-482.39 -0.09,-723.62 -16.57,3.72 -32.92,8.22 -49.15,12.92 0.36,248.11 -0.39,496.23 0.36,744.35 l 0,0 z" /><path
         id="path4379"
         style="fill:#ffffff;fill-opacity:1;fill-rule:nonzero;stroke:none"
         d="m 1774.92,2105.34 c 16.12,-12.32 36.06,-21.22 48.59,-37.3 1.16,-228.97 0.35,-458.05 0.4,-687.05 -16.47,4.83 -32.87,9.67 -49.34,14.42 0.35,236.68 -0.31,473.31 0.35,709.93 l 0,0" /><path
         id="path4381"
         style="fill:none;stroke:#100f0d;stroke-width:10;stroke-linecap:butt;stroke-linejoin:miter;stroke-miterlimit:4;stroke-dasharray:none;stroke-opacity:1"
         d="m 1774.92,2105.34 c 16.12,-12.32 36.06,-21.22 48.59,-37.3 1.16,-228.97 0.35,-458.05 0.4,-687.05 -16.47,4.83 -32.87,9.67 -49.34,14.42 0.35,236.68 -0.31,473.31 0.35,709.93 l 0,0 z" /><path
         id="path4383"
         style="fill:#ffffff;fill-opacity:1;fill-rule:nonzero;stroke:none"
         d="m 1855.02,2049.65 c 15.56,-11.26 31.26,-22.26 47.25,-32.87 0.46,-220.38 0.62,-440.78 -0.03,-661.18 -15.92,5.24 -31.72,10.47 -47.63,15.41 0.15,226.21 -0.7,452.48 0.41,678.64 l 0,0" /><path
         id="path4385"
         style="fill:none;stroke:#100f0d;stroke-width:10;stroke-linecap:butt;stroke-linejoin:miter;stroke-miterlimit:4;stroke-dasharray:none;stroke-opacity:1"
         d="m 1855.02,2049.65 c 15.56,-11.26 31.26,-22.26 47.25,-32.87 0.46,-220.38 0.62,-440.78 -0.03,-661.18 -15.92,5.24 -31.72,10.47 -47.63,15.41 0.15,226.21 -0.7,452.48 0.41,678.64 l 0,0 z" /><path
         id="path4387"
         style="fill:#ffffff;fill-opacity:1;fill-rule:nonzero;stroke:none"
         d="m 4301.03,1995.91 c 35.2,-12.34 69.04,-28.42 105.25,-38.15 90.18,-25.82 180.94,-52.52 274.76,-62.45 -10.95,-23.86 -17.97,-49.19 -23.77,-74.67 -31.82,17.46 -67.52,26.31 -102.47,35.94 -90.85,25.39 -182.47,49.74 -276.39,61.72 10.55,24.99 18.44,50.95 22.62,77.61 l 0,0" /><path
         id="path4389"
         style="fill:none;stroke:#100f0d;stroke-width:10;stroke-linecap:butt;stroke-linejoin:miter;stroke-miterlimit:4;stroke-dasharray:none;stroke-opacity:1"
         d="m 4301.03,1995.91 c 35.2,-12.34 69.04,-28.42 105.25,-38.15 90.18,-25.82 180.94,-52.52 274.76,-62.45 -10.95,-23.86 -17.97,-49.19 -23.77,-74.67 -31.82,17.46 -67.52,26.31 -102.47,35.94 -90.85,25.39 -182.47,49.74 -276.39,61.72 10.55,24.99 18.44,50.95 22.62,77.61 l 0,0 z" /><path
         id="path4391"
         style="fill:#ffffff;fill-opacity:1;fill-rule:nonzero;stroke:none"
         d="m 1933.59,1994.09 c 16.57,-11.15 32.88,-22.68 49.09,-34.33 -0.1,-210.81 0.3,-421.62 -0.2,-632.42 -16.32,5.87 -32.58,11.89 -49.14,17.06 0.2,216.59 -0.36,433.12 0.25,649.69 l 0,0" /><path
         id="path4393"
         style="fill:none;stroke:#100f0d;stroke-width:10;stroke-linecap:butt;stroke-linejoin:miter;stroke-miterlimit:4;stroke-dasharray:none;stroke-opacity:1"
         d="m 1933.59,1994.09 c 16.57,-11.15 32.88,-22.68 49.09,-34.33 -0.1,-210.81 0.3,-421.62 -0.2,-632.42 -16.32,5.87 -32.58,11.89 -49.14,17.06 0.2,216.59 -0.36,433.12 0.25,649.69 l 0,0 z" /><path
         id="path4395"
         style="fill:#ffffff;fill-opacity:1;fill-rule:nonzero;stroke:none"
         d="m 2013.13,1937.71 c 17.02,-10.51 33.24,-22.2 49.29,-34.09 -0.6,-202.1 0.05,-404.16 -0.35,-606.26 -16.27,6.31 -32.52,12.67 -49.04,18.2 -0.05,207.39 -0.3,414.76 0.1,622.15 l 0,0" /><path
         id="path4397"
         style="fill:none;stroke:#100f0d;stroke-width:10;stroke-linecap:butt;stroke-linejoin:miter;stroke-miterlimit:4;stroke-dasharray:none;stroke-opacity:1"
         d="m 2013.13,1937.71 c 17.02,-10.51 33.24,-22.2 49.29,-34.09 -0.6,-202.1 0.05,-404.16 -0.35,-606.26 -16.27,6.31 -32.52,12.67 -49.04,18.2 -0.05,207.39 -0.3,414.76 0.1,622.15 l 0,0 z" /><path
         id="path4399"
         style="fill:#ffffff;fill-opacity:1;fill-rule:nonzero;stroke:none"
         d="m 553.023,1793.02 c 77.977,27.14 155.844,55.79 229.122,93.59 6.257,-26.45 15.707,-52.08 27.668,-76.63 -69.536,-13.73 -137.208,-34.67 -203.258,-59.71 -56.61,-19.95 -113.371,-41.12 -165.133,-71.38 -6.567,25.42 -15.305,50.16 -26.109,74.13 47.718,6.75 92.515,24.59 137.71,40 l 0,0" /><path
         id="path4401"
         style="fill:none;stroke:#100f0d;stroke-width:10;stroke-linecap:butt;stroke-linejoin:miter;stroke-miterlimit:4;stroke-dasharray:none;stroke-opacity:1"
         d="m 553.023,1793.02 c 77.977,27.14 155.844,55.79 229.122,93.59 6.257,-26.45 15.707,-52.08 27.668,-76.63 -69.536,-13.73 -137.208,-34.67 -203.258,-59.71 -56.61,-19.95 -113.371,-41.12 -165.133,-71.38 -6.567,25.42 -15.305,50.16 -26.109,74.13 47.718,6.75 92.515,24.59 137.71,40 l 0,0 z" /><path
         id="path4403"
         style="fill:#ffffff;fill-opacity:1;fill-rule:nonzero;stroke:none"
         d="m 2093.17,1882.65 c 14.9,-11.15 30.96,-20.79 45.6,-32.27 3.64,-6.46 3.24,-13.93 3.45,-21.13 -0.26,-187.68 0.05,-375.35 -0.16,-563.03 -16.62,5.77 -32.68,12.75 -49.14,18.83 -0.11,199.22 -0.61,398.43 0.25,597.6 l 0,0" /><path
         id="path4405"
         style="fill:none;stroke:#100f0d;stroke-width:10;stroke-linecap:butt;stroke-linejoin:miter;stroke-miterlimit:4;stroke-dasharray:none;stroke-opacity:1"
         d="m 2093.17,1882.65 c 14.9,-11.15 30.96,-20.79 45.6,-32.27 3.64,-6.46 3.24,-13.93 3.45,-21.13 -0.26,-187.68 0.05,-375.35 -0.16,-563.03 -16.62,5.77 -32.68,12.75 -49.14,18.83 -0.11,199.22 -0.61,398.43 0.25,597.6 l 0,0 z" /><path
         id="path4407"
         style="fill:#ffffff;fill-opacity:1;fill-rule:nonzero;stroke:none"
         d="m 4258.77,1841.72 c 31.66,14.58 72.97,3.77 93.67,-23.71 -8.89,-26.21 -19.03,-52.62 -18.73,-80.69 -13.58,15.89 -28.44,35.55 -51.96,35.75 -31.27,4.73 -58.38,-20.75 -69.09,-47.05 -14.04,-53.34 13.38,-118.73 69.03,-138.14 23.89,-10.96 58.28,-10.57 73.08,13.94 19.39,37.07 32.26,76.87 49.23,114.96 13.89,30.56 46.17,52.96 80.65,54.92 20.1,-4.85 40,-12.67 57.07,-24.31 25.7,-23.12 46.81,-54.43 47.01,-89.53 4.54,-36.63 -18.22,-68.03 -31.81,-100.35 -15.31,-34.47 -22.52,-74.08 -51.16,-101.37 -22.58,-16.28 -52.31,-11 -77.57,-5.04 15.72,23.67 26.82,50.08 28.19,78.44 18.38,-6.31 40.74,-17.6 58.82,-4.49 22.32,17.65 38.84,45.47 36.52,74.02 -0.66,25.25 -7.18,51.4 -23.74,71.36 -18.13,21.71 -51.15,33 -78.03,20.09 -24.38,-9.49 -31.2,-36.28 -41.31,-57.16 -15.75,-33.9 -16.71,-73.3 -38.12,-104.7 -17.78,-25.52 -52.72,-30.52 -81.91,-25.22 -43.42,11.63 -83.22,40.82 -100.6,81.85 -9.74,24.35 -17.73,51.1 -11.36,77.21 7.98,37.61 30.1,70.37 40.3,107.24 9.19,25.82 19.09,54.43 41.82,71.98 l 0,0" /><path
         id="path4409"
         style="fill:none;stroke:#100f0d;stroke-width:10;stroke-linecap:butt;stroke-linejoin:miter;stroke-miterlimit:4;stroke-dasharray:none;stroke-opacity:1"
         d="m 4258.77,1841.72 c 31.66,14.58 72.97,3.77 93.67,-23.71 -8.89,-26.21 -19.03,-52.62 -18.73,-80.69 -13.58,15.89 -28.44,35.55 -51.96,35.75 -31.27,4.73 -58.38,-20.75 -69.09,-47.05 -14.04,-53.34 13.38,-118.73 69.03,-138.14 23.89,-10.96 58.28,-10.57 73.08,13.94 19.39,37.07 32.26,76.87 49.23,114.96 13.89,30.56 46.17,52.96 80.65,54.92 20.1,-4.85 40,-12.67 57.07,-24.31 25.7,-23.12 46.81,-54.43 47.01,-89.53 4.54,-36.63 -18.22,-68.03 -31.81,-100.35 -15.31,-34.47 -22.52,-74.08 -51.16,-101.37 -22.58,-16.28 -52.31,-11 -77.57,-5.04 15.72,23.67 26.82,50.08 28.19,78.44 18.38,-6.31 40.74,-17.6 58.82,-4.49 22.32,17.65 38.84,45.47 36.52,74.02 -0.66,25.25 -7.18,51.4 -23.74,71.36 -18.13,21.71 -51.15,33 -78.03,20.09 -24.38,-9.49 -31.2,-36.28 -41.31,-57.16 -15.75,-33.9 -16.71,-73.3 -38.12,-104.7 -17.78,-25.52 -52.72,-30.52 -81.91,-25.22 -43.42,11.63 -83.22,40.82 -100.6,81.85 -9.74,24.35 -17.73,51.1 -11.36,77.21 7.98,37.61 30.1,70.37 40.3,107.24 9.19,25.82 19.09,54.43 41.82,71.98 l 0,0 z" /><path
         id="path4411"
         style="fill:#ffffff;fill-opacity:1;fill-rule:nonzero;stroke:none"
         d="m 2165.95,1831.5 c 16.26,-11.25 32.21,-22.89 48.84,-33.74 0.35,-187.49 0.14,-374.97 0.09,-562.5 -16.56,6.65 -32.88,13.84 -49.33,20.59 0.4,191.88 -0.32,383.76 0.4,575.65 l 0,0" /><path
         id="path4413"
         style="fill:none;stroke:#100f0d;stroke-width:10;stroke-linecap:butt;stroke-linejoin:miter;stroke-miterlimit:4;stroke-dasharray:none;stroke-opacity:1"
         d="m 2165.95,1831.5 c 16.26,-11.25 32.21,-22.89 48.84,-33.74 0.35,-187.49 0.14,-374.97 0.09,-562.5 -16.56,6.65 -32.88,13.84 -49.33,20.59 0.4,191.88 -0.32,383.76 0.4,575.65 l 0,0 z" /><path
         id="path4415"
         style="fill:#ffffff;fill-opacity:1;fill-rule:nonzero;stroke:none"
         d="m 2245.33,1775.12 c 16.82,-10.66 32.93,-22.35 49.18,-33.84 -0.15,-180.64 0.21,-361.27 -0.19,-541.86 -16.37,7.47 -32.68,15.01 -49.14,22.3 0.15,184.5 -0.15,368.95 0.15,553.4 l 0,0" /><path
         id="path4417"
         style="fill:none;stroke:#100f0d;stroke-width:10;stroke-linecap:butt;stroke-linejoin:miter;stroke-miterlimit:4;stroke-dasharray:none;stroke-opacity:1"
         d="m 2245.33,1775.12 c 16.82,-10.66 32.93,-22.35 49.18,-33.84 -0.15,-180.64 0.21,-361.27 -0.19,-541.86 -16.37,7.47 -32.68,15.01 -49.14,22.3 0.15,184.5 -0.15,368.95 0.15,553.4 l 0,0 z" /><path
         id="path4419"
         style="fill:#ffffff;fill-opacity:1;fill-rule:nonzero;stroke:none"
         d="m 2325.32,1719.42 c 14.9,-10.32 30.35,-19.9 44.39,-31.34 6.27,-4.9 4.24,-13.4 4.85,-20.2 -0.41,-168.94 0.4,-337.89 -0.41,-506.85 -16.41,7.83 -32.67,15.84 -49.03,23.67 0.06,178.24 -0.35,356.48 0.2,534.72 l 0,0" /><path
         id="path4421"
         style="fill:none;stroke:#100f0d;stroke-width:10;stroke-linecap:butt;stroke-linejoin:miter;stroke-miterlimit:4;stroke-dasharray:none;stroke-opacity:1"
         d="m 2325.32,1719.42 c 14.9,-10.32 30.35,-19.9 44.39,-31.34 6.27,-4.9 4.24,-13.4 4.85,-20.2 -0.41,-168.94 0.4,-337.89 -0.41,-506.85 -16.41,7.83 -32.67,15.84 -49.03,23.67 0.06,178.24 -0.35,356.48 0.2,534.72 l 0,0 z" /><path
         id="path4423"
         style="fill:#ffffff;fill-opacity:1;fill-rule:nonzero;stroke:none"
         d="m 689.375,1561.43 c 64.086,31 128.773,62 185.188,105.42 10.906,-27.19 23.73,-53.88 41.808,-77.36 -91.453,-35.64 -181.598,-76.08 -264.062,-128.8 -15.301,-9.34 -30.653,-18.92 -43.786,-31.04 -4.949,-7.79 0.813,-16.98 4.446,-24.16 9.195,-15.79 17.019,-32.38 26.562,-48.08 10.86,-17.84 28.633,-30.02 45.75,-41.76 -21.051,-2.93 -41.66,-8.4 -62.261,-13.49 -15.403,32.37 -29.446,65.43 -46.055,97.25 -33.688,60.05 -62.27,123.04 -102.77,179.27 -7.879,10.13 -19.039,16.97 -29.09,24.81 17.02,6 34.04,12.16 50.754,18.86 19.391,-39.26 39.493,-78.34 64.137,-114.86 44.086,15.69 87.715,32.81 129.379,53.94 l 0,0" /><path
         id="path4425"
         style="fill:none;stroke:#100f0d;stroke-width:10;stroke-linecap:butt;stroke-linejoin:miter;stroke-miterlimit:4;stroke-dasharray:none;stroke-opacity:1"
         d="m 689.375,1561.43 c 64.086,31 128.773,62 185.188,105.42 10.906,-27.19 23.73,-53.88 41.808,-77.36 -91.453,-35.64 -181.598,-76.08 -264.062,-128.8 -15.301,-9.34 -30.653,-18.92 -43.786,-31.04 -4.949,-7.79 0.813,-16.98 4.446,-24.16 9.195,-15.79 17.019,-32.38 26.562,-48.08 10.86,-17.84 28.633,-30.02 45.75,-41.76 -21.051,-2.93 -41.66,-8.4 -62.261,-13.49 -15.403,32.37 -29.446,65.43 -46.055,97.25 -33.688,60.05 -62.27,123.04 -102.77,179.27 -7.879,10.13 -19.039,16.97 -29.09,24.81 17.02,6 34.04,12.16 50.754,18.86 19.391,-39.26 39.493,-78.34 64.137,-114.86 44.086,15.69 87.715,32.81 129.379,53.94 l 0,0 z" /><path
         id="path4427"
         style="fill:#ffffff;fill-opacity:1;fill-rule:nonzero;stroke:none"
         d="m 2405.57,1663.77 c 15.49,-11.3 31.2,-22.3 47.21,-32.95 0.26,-170.86 0.66,-341.77 -0.2,-512.63 -15.55,9.24 -31.46,17.9 -47.46,26.31 0,173.07 -0.87,346.16 0.45,519.27 l 0,0" /><path
         id="path4429"
         style="fill:none;stroke:#100f0d;stroke-width:10;stroke-linecap:butt;stroke-linejoin:miter;stroke-miterlimit:4;stroke-dasharray:none;stroke-opacity:1"
         d="m 2405.57,1663.77 c 15.49,-11.3 31.2,-22.3 47.21,-32.95 0.26,-170.86 0.66,-341.77 -0.2,-512.63 -15.55,9.24 -31.46,17.9 -47.46,26.31 0,173.07 -0.87,346.16 0.45,519.27 l 0,0 z" /><path
         id="path4431"
         style="fill:#ffffff;fill-opacity:1;fill-rule:nonzero;stroke:none"
         d="m 2483.94,1608.17 c 16.63,-11.1 33.03,-22.53 49.14,-34.32 0,-163.82 -0.31,-327.58 0.15,-491.4 -2.37,-2.34 -7.17,-6.99 -9.59,-9.34 -13.18,9.05 -26.47,17.9 -40.05,26.25 0.45,169.6 -0.2,339.17 0.35,508.81 l 0,0" /><path
         id="path4433"
         style="fill:none;stroke:#100f0d;stroke-width:10;stroke-linecap:butt;stroke-linejoin:miter;stroke-miterlimit:4;stroke-dasharray:none;stroke-opacity:1"
         d="m 2483.94,1608.17 c 16.63,-11.1 33.03,-22.53 49.14,-34.32 0,-163.82 -0.31,-327.58 0.15,-491.4 -2.37,-2.34 -7.17,-6.99 -9.59,-9.34 -13.18,9.05 -26.47,17.9 -40.05,26.25 0.45,169.6 -0.2,339.17 0.35,508.81 l 0,0 z" /><path
         id="path4435"
         style="fill:#ffffff;fill-opacity:1;fill-rule:nonzero;stroke:none"
         d="m 2563.38,1552.09 c 17.07,-10.66 33.38,-22.45 49.54,-34.39 -0.71,-128.06 -0.3,-256.08 -0.2,-384.15 -16.41,-10.12 -32.52,-20.59 -49.29,-30.17 -0.3,149.59 -0.15,299.12 -0.05,448.71 l 0,0" /><path
         id="path4437"
         style="fill:none;stroke:#100f0d;stroke-width:10;stroke-linecap:butt;stroke-linejoin:miter;stroke-miterlimit:4;stroke-dasharray:none;stroke-opacity:1"
         d="m 2563.38,1552.09 c 17.07,-10.66 33.38,-22.45 49.54,-34.39 -0.71,-128.06 -0.3,-256.08 -0.2,-384.15 -16.41,-10.12 -32.52,-20.59 -49.29,-30.17 -0.3,149.59 -0.15,299.12 -0.05,448.71 l 0,0 z" /><path
         id="path4439"
         style="fill:#ffffff;fill-opacity:1;fill-rule:nonzero;stroke:none"
         d="m 929.148,1548.86 c 18.786,-24.74 33.836,-52.28 56.512,-74.18 -20.051,-30.08 -48.379,-53.74 -69.64,-82.99 -5.754,-8.07 -16.567,-18.68 -8.887,-28.9 24.64,-33.79 49.687,-67.33 74.586,-100.97 44.741,5.96 87.571,23.71 127.311,44.01 9.8,-14.92 21.06,-28.86 31.97,-43.04 -120.35,-33.25 -241.547,-63.81 -360.32,-102.05 -12.477,-5.62 -15.809,-20.14 -23.129,-30.32 -15.754,28.99 -37.219,54.47 -56.512,81.27 73.531,81.23 139.281,169.14 196.039,262.16 16.567,22.39 25.258,48.6 32.07,75.01 l 0,0" /><path
         id="path4441"
         style="fill:none;stroke:#100f0d;stroke-width:10;stroke-linecap:butt;stroke-linejoin:miter;stroke-miterlimit:4;stroke-dasharray:none;stroke-opacity:1"
         d="m 929.148,1548.86 c 18.786,-24.74 33.836,-52.28 56.512,-74.18 -20.051,-30.08 -48.379,-53.74 -69.64,-82.99 -5.754,-8.07 -16.567,-18.68 -8.887,-28.9 24.64,-33.79 49.687,-67.33 74.586,-100.97 44.741,5.96 87.571,23.71 127.311,44.01 9.8,-14.92 21.06,-28.86 31.97,-43.04 -120.35,-33.25 -241.547,-63.81 -360.32,-102.05 -12.477,-5.62 -15.809,-20.14 -23.129,-30.32 -15.754,28.99 -37.219,54.47 -56.512,81.27 73.531,81.23 139.281,169.14 196.039,262.16 16.567,22.39 25.258,48.6 32.07,75.01 l 0,0 z" /><path
         id="path4443"
         style="fill:#ffffff;fill-opacity:1;fill-rule:nonzero;stroke:none"
         d="m 2643.62,1496.68 c 14.09,-10.22 28.79,-19.66 42.93,-29.87 6.31,-3.97 5.4,-12.52 6.01,-18.93 -0.05,-68.6 -0.05,-137.21 -0.05,-205.82 -0.21,-22.25 0.96,-44.65 -1.83,-66.85 -15.9,-7.82 -31.61,-15.93 -47.31,-24.16 -0.2,115.22 -0.7,230.42 0.25,345.63 l 0,0" /><path
         id="path4445"
         style="fill:none;stroke:#100f0d;stroke-width:10;stroke-linecap:butt;stroke-linejoin:miter;stroke-miterlimit:4;stroke-dasharray:none;stroke-opacity:1"
         d="m 2643.62,1496.68 c 14.09,-10.22 28.79,-19.66 42.93,-29.87 6.31,-3.97 5.4,-12.52 6.01,-18.93 -0.05,-68.6 -0.05,-137.21 -0.05,-205.82 -0.21,-22.25 0.96,-44.65 -1.83,-66.85 -15.9,-7.82 -31.61,-15.93 -47.31,-24.16 -0.2,115.22 -0.7,230.42 0.25,345.63 l 0,0 z" /><path
         id="path4447"
         style="fill:#ffffff;fill-opacity:1;fill-rule:nonzero;stroke:none"
         d="m 4004.25,1391.4 c 18.48,22.45 37.21,44.95 50.13,70.95 74.15,-58.33 149.04,-116.97 233.12,-161.46 20.2,-11.93 41.21,-23.43 64.59,-28.31 13.73,19.26 28.09,38.18 41.56,57.6 12.32,18.04 15.1,39.9 18.59,60.74 13.68,-15.56 26.67,-31.69 41.71,-46.02 -28.64,-34.58 -57.43,-69.05 -83.02,-105.83 -34.29,-48.46 -71.66,-95.2 -99.59,-147.57 -6.37,-12.08 -8.03,-25.72 -11.21,-38.82 -12.63,12.36 -26.41,23.41 -40.5,34.13 24.99,35.01 53.93,67.96 73.12,106.5 -4.14,12.71 -17.57,19.26 -27.02,27.87 -52.01,43.27 -108.73,80.83 -165.28,118.19 -30.05,20.74 -63.48,35.89 -96.2,52.03 l 0,0" /><path
         id="path4449"
         style="fill:none;stroke:#100f0d;stroke-width:10;stroke-linecap:butt;stroke-linejoin:miter;stroke-miterlimit:4;stroke-dasharray:none;stroke-opacity:1"
         d="m 4004.25,1391.4 c 18.48,22.45 37.21,44.95 50.13,70.95 74.15,-58.33 149.04,-116.97 233.12,-161.46 20.2,-11.93 41.21,-23.43 64.59,-28.31 13.73,19.26 28.09,38.18 41.56,57.6 12.32,18.04 15.1,39.9 18.59,60.74 13.68,-15.56 26.67,-31.69 41.71,-46.02 -28.64,-34.58 -57.43,-69.05 -83.02,-105.83 -34.29,-48.46 -71.66,-95.2 -99.59,-147.57 -6.37,-12.08 -8.03,-25.72 -11.21,-38.82 -12.63,12.36 -26.41,23.41 -40.5,34.13 24.99,35.01 53.93,67.96 73.12,106.5 -4.14,12.71 -17.57,19.26 -27.02,27.87 -52.01,43.27 -108.73,80.83 -165.28,118.19 -30.05,20.74 -63.48,35.89 -96.2,52.03 l 0,0 z" /><path
         id="path4451"
         style="fill:#ffffff;fill-opacity:1;fill-rule:nonzero;stroke:none"
         d="m 2723.31,1440.69 c 15.86,-11.1 31.67,-22.34 47.72,-33.25 0.2,-64.84 0.16,-129.73 0.05,-194.57 -16.01,-6.81 -31.86,-14.14 -47.56,-21.56 -1.01,83.12 -0.5,166.25 -0.21,249.38 l 0,0" /><path
         id="path4453"
         style="fill:none;stroke:#100f0d;stroke-width:10;stroke-linecap:butt;stroke-linejoin:miter;stroke-miterlimit:4;stroke-dasharray:none;stroke-opacity:1"
         d="m 2723.31,1440.69 c 15.86,-11.1 31.67,-22.34 47.72,-33.25 0.2,-64.84 0.16,-129.73 0.05,-194.57 -16.01,-6.81 -31.86,-14.14 -47.56,-21.56 -1.01,83.12 -0.5,166.25 -0.21,249.38 l 0,0 z" /><path
         id="path4455"
         style="fill:#ffffff;fill-opacity:1;fill-rule:nonzero;stroke:none"
         d="m 2802.09,1385.44 c 16.46,-11.11 32.37,-22.99 48.99,-34.03 -0.26,-34.1 0.66,-68.27 -0.26,-102.41 -12.82,-11.64 -32.87,-14.71 -48.83,-22.19 -0.25,52.91 -0.41,105.76 0.1,158.63 l 0,0" /><path
         id="path4457"
         style="fill:none;stroke:#100f0d;stroke-width:10;stroke-linecap:butt;stroke-linejoin:miter;stroke-miterlimit:4;stroke-dasharray:none;stroke-opacity:1"
         d="m 2802.09,1385.44 c 16.46,-11.11 32.37,-22.99 48.99,-34.03 -0.26,-34.1 0.66,-68.27 -0.26,-102.41 -12.82,-11.64 -32.87,-14.71 -48.83,-22.19 -0.25,52.91 -0.41,105.76 0.1,158.63 l 0,0 z" /><path
         id="path4459"
         style="fill:#1a1d42;fill-opacity:1;fill-rule:nonzero;stroke:none"
         d="m 783.91,1202.74 c 33.938,48.47 68.832,96.34 104.281,143.77 24.039,-30.81 49.344,-60.73 72.872,-91.93 -58.473,-18.98 -118.114,-34.42 -177.153,-51.84 l 0,0" /><path
         id="path4461"
         style="fill:#ffffff;fill-opacity:1;fill-rule:nonzero;stroke:none"
         d="m 2876.43,1332.92 c 14.85,-9.98 30.09,-19.61 44.04,-30.86 8.12,-6.5 4.09,-17.85 5.64,-26.7 -16.5,-6.55 -33.01,-12.96 -49.73,-18.78 -0.21,25.48 -0.21,50.91 0.05,76.34 l 0,0" /><path
         id="path4463"
         style="fill:none;stroke:#100f0d;stroke-width:10;stroke-linecap:butt;stroke-linejoin:miter;stroke-miterlimit:4;stroke-dasharray:none;stroke-opacity:1"
         d="m 2876.43,1332.92 c 14.85,-9.98 30.09,-19.61 44.04,-30.86 8.12,-6.5 4.09,-17.85 5.64,-26.7 -16.5,-6.55 -33.01,-12.96 -49.73,-18.78 -0.21,25.48 -0.21,50.91 0.05,76.34 l 0,0 z" /><path
         id="path4465"
         style="fill:#ffffff;fill-opacity:1;fill-rule:nonzero;stroke:none"
         d="m 3851.13,1224.5 c 19.19,20.74 38.64,45.33 67.62,52.81 33.03,-1.17 70.8,-23.56 74.13,-57.85 -17.47,-20.58 -34.94,-41.32 -47.41,-65.32 -5.71,17.26 -9.7,38.18 -27.88,47.43 -23.19,17.85 -54.34,6.54 -76.66,-6.75 -24.59,-16.82 -29.75,-48.11 -33.94,-74.97 0.21,-32.07 9.35,-66.94 35.76,-88.5 17.97,-19.51 51.2,-29.73 74.08,-11.88 26.16,21.7 47.67,48.12 71.56,72.03 21.81,29.1 59.44,49.44 97.11,43.86 19.74,-1.95 32.47,-17.51 45.65,-30.08 20.5,-18.96 27.02,-47.27 31.46,-73.35 -0.1,-25.42 -8.23,-51.039 -22.11,-72.66 -12.98,-16.668 -29.85,-30.02 -44.65,-45.129 -31.36,-27.922 -53.33,-67.442 -94.02,-84.262 -26.67,-7.18 -51.72,9.152 -73.18,22.301 21.92,17.699 44.48,36.34 54.85,62.992 12.87,-9.25 24.28,-23.281 41.44,-24.313 20.11,-2.199 36.68,11.301 51.42,22.59 23.68,19.031 30.19,51 30.8,79.36 1.12,27.731 -12.38,58.341 -39.29,70.571 -20.19,9.15 -45.45,6.31 -62.21,-8.08 -25.05,-21.6 -47.37,-46.1 -66.1,-73.038 -15.91,-21.723 -36.67,-45.821 -66.36,-47.141 -34.5,-2.891 -65.14,18.09 -85.35,43.367 -40.5,45.042 -45.19,116.332 -10.24,165.622 20.59,30.08 52.12,50.96 73.52,80.39 l 0,0" /><path
         id="path4467"
         style="fill:none;stroke:#100f0d;stroke-width:10;stroke-linecap:butt;stroke-linejoin:miter;stroke-miterlimit:4;stroke-dasharray:none;stroke-opacity:1"
         d="m 3851.13,1224.5 c 19.19,20.74 38.64,45.33 67.62,52.81 33.03,-1.17 70.8,-23.56 74.13,-57.85 -17.47,-20.58 -34.94,-41.32 -47.41,-65.32 -5.71,17.26 -9.7,38.18 -27.88,47.43 -23.19,17.85 -54.34,6.54 -76.66,-6.75 -24.59,-16.82 -29.75,-48.11 -33.94,-74.97 0.21,-32.07 9.35,-66.94 35.76,-88.5 17.97,-19.51 51.2,-29.73 74.08,-11.88 26.16,21.7 47.67,48.12 71.56,72.03 21.81,29.1 59.44,49.44 97.11,43.86 19.74,-1.95 32.47,-17.51 45.65,-30.08 20.5,-18.96 27.02,-47.27 31.46,-73.35 -0.1,-25.42 -8.23,-51.039 -22.11,-72.66 -12.98,-16.668 -29.85,-30.02 -44.65,-45.129 -31.36,-27.922 -53.33,-67.442 -94.02,-84.262 -26.67,-7.18 -51.72,9.152 -73.18,22.301 21.92,17.699 44.48,36.34 54.85,62.992 12.87,-9.25 24.28,-23.281 41.44,-24.313 20.11,-2.199 36.68,11.301 51.42,22.59 23.68,19.031 30.19,51 30.8,79.36 1.12,27.731 -12.38,58.341 -39.29,70.571 -20.19,9.15 -45.45,6.31 -62.21,-8.08 -25.05,-21.6 -47.37,-46.1 -66.1,-73.038 -15.91,-21.723 -36.67,-45.821 -66.36,-47.141 -34.5,-2.891 -65.14,18.09 -85.35,43.367 -40.5,45.042 -45.19,116.332 -10.24,165.622 20.59,30.08 52.12,50.96 73.52,80.39 l 0,0 z" /><path
         id="path4469"
         style="fill:#ffffff;fill-opacity:1;fill-rule:nonzero;stroke:none"
         d="m 1160.14,1243.48 c 19.55,-26.16 45.05,-47.73 73.47,-64.55 -7.58,-80.98 -11.41,-162.25 -16.71,-243.371 -1.76,-43.668 -11.76,-87.09 -8.08,-130.911 15.4,12.961 28.84,27.883 41.91,42.993 37.93,39.898 74.39,81.109 111.46,121.8 17.31,18.579 30.3,40.389 42.77,62.149 19.09,-20.54 40.4,-38.969 64.09,-54.418 -16.52,-5.141 -33.89,-9.793 -47.27,-21.082 -51.15,-43.621 -93.23,-95.801 -138.98,-144.449 -20.65,-22.34 -41.56,-44.7 -59.13,-69.43 -9.44,-13.512 -8.99,-30.32 -11.57,-45.82 -23.89,21.359 -47.17,43.41 -73.58,61.949 10.81,32.531 10.91,66.89 14.65,100.539 3.94,70.711 9.13,141.331 12.97,212.081 2.98,23.56 3.69,47.33 2.12,71 -6.45,-4.94 -12.87,-10.07 -18.27,-16.28 -64.44,-71.54 -133.37,-140.098 -187.763,-219.469 -17.829,22.598 -42.067,38.629 -64.289,56.629 16.066,3.281 33.433,4.59 47.222,14.129 15.149,9.633 26.559,23.431 38.078,36.721 56.102,60.11 113.772,118.93 165.132,182.99 7.58,14.42 8.23,31.19 11.77,46.8 l 0,0" /><path
         id="path4471"
         style="fill:none;stroke:#100f0d;stroke-width:10;stroke-linecap:butt;stroke-linejoin:miter;stroke-miterlimit:4;stroke-dasharray:none;stroke-opacity:1"
         d="m 1160.14,1243.48 c 19.55,-26.16 45.05,-47.73 73.47,-64.55 -7.58,-80.98 -11.41,-162.25 -16.71,-243.371 -1.76,-43.668 -11.76,-87.09 -8.08,-130.911 15.4,12.961 28.84,27.883 41.91,42.993 37.93,39.898 74.39,81.109 111.46,121.8 17.31,18.579 30.3,40.389 42.77,62.149 19.09,-20.54 40.4,-38.969 64.09,-54.418 -16.52,-5.141 -33.89,-9.793 -47.27,-21.082 -51.15,-43.621 -93.23,-95.801 -138.98,-144.449 -20.65,-22.34 -41.56,-44.7 -59.13,-69.43 -9.44,-13.512 -8.99,-30.32 -11.57,-45.82 -23.89,21.359 -47.17,43.41 -73.58,61.949 10.81,32.531 10.91,66.89 14.65,100.539 3.94,70.711 9.13,141.331 12.97,212.081 2.98,23.56 3.69,47.33 2.12,71 -6.45,-4.94 -12.87,-10.07 -18.27,-16.28 -64.44,-71.54 -133.37,-140.098 -187.763,-219.469 -17.829,22.598 -42.067,38.629 -64.289,56.629 16.066,3.281 33.433,4.59 47.222,14.129 15.149,9.633 26.559,23.431 38.078,36.721 56.102,60.11 113.772,118.93 165.132,182.99 7.58,14.42 8.23,31.19 11.77,46.8 l 0,0 z" /><path
         id="path4473"
         style="fill:#ffffff;fill-opacity:1;fill-rule:nonzero;stroke:none"
         d="m 3623.63,1021.96 c 8.79,5.82 17.42,11.79 25.96,17.89 25.8,-43.998 58.88,-84.049 95.64,-119.991 -8.07,-5.23 -16.01,-10.609 -23.88,-15.988 -28.69,42.188 -61.41,81.859 -97.72,118.089 l 0,0" /><path
         id="path4475"
         style="fill:none;stroke:#100f0d;stroke-width:10;stroke-linecap:butt;stroke-linejoin:miter;stroke-miterlimit:4;stroke-dasharray:none;stroke-opacity:1"
         d="m 3623.63,1021.96 c 8.79,5.82 17.42,11.79 25.96,17.89 25.8,-43.998 58.88,-84.049 95.64,-119.991 -8.07,-5.23 -16.01,-10.609 -23.88,-15.988 -28.69,42.188 -61.41,81.859 -97.72,118.089 l 0,0 z" /><path
         id="path4477"
         style="fill:#ffffff;fill-opacity:1;fill-rule:nonzero;stroke:none"
         d="m 3579.84,988.66 c 7.12,5.289 14.14,10.61 21.17,15.94 13.62,-29.428 26.75,-63.62 59.08,-78.338 -8.33,-6.461 -16.11,-13.5 -23.59,-20.832 -3.69,3.09 -7.37,6.16 -11,9.14 -16.98,-21.41 -37.06,-41.422 -60.96,-55.55 -21.15,-3.559 -37.02,15.8 -42.63,33.359 -7.47,15.84 -2.61,33.34 -3.12,49.973 -9.29,-7.821 -17.02,-17.122 -24.09,-26.84 0.55,6.5 1.01,12.957 1.52,19.347 20.2,8.762 38.47,21.532 53.02,37.77 -8.03,-17.758 -15.05,-37.809 -8.69,-57.168 3.94,-17.27 16.62,-38.981 38.34,-34.281 23.28,-1.961 28.93,25.718 29.14,43.031 2.36,24.937 -13.74,45.621 -28.19,64.449 l 0,0" /><path
         id="path4479"
         style="fill:none;stroke:#100f0d;stroke-width:10;stroke-linecap:butt;stroke-linejoin:miter;stroke-miterlimit:4;stroke-dasharray:none;stroke-opacity:1"
         d="m 3579.84,988.66 c 7.12,5.289 14.14,10.61 21.17,15.94 13.62,-29.428 26.75,-63.62 59.08,-78.338 -8.33,-6.461 -16.11,-13.5 -23.59,-20.832 -3.69,3.09 -7.37,6.16 -11,9.14 -16.98,-21.41 -37.06,-41.422 -60.96,-55.55 -21.15,-3.559 -37.02,15.8 -42.63,33.359 -7.47,15.84 -2.61,33.34 -3.12,49.973 -9.29,-7.821 -17.02,-17.122 -24.09,-26.84 0.55,6.5 1.01,12.957 1.52,19.347 20.2,8.762 38.47,21.532 53.02,37.77 -8.03,-17.758 -15.05,-37.809 -8.69,-57.168 3.94,-17.27 16.62,-38.981 38.34,-34.281 23.28,-1.961 28.93,25.718 29.14,43.031 2.36,24.937 -13.74,45.621 -28.19,64.449 l 0,0 z" /><path
         id="path4481"
         style="fill:#ffffff;fill-opacity:1;fill-rule:nonzero;stroke:none"
         d="m 3376.69,867.582 c 24.08,13.988 46.6,31.738 73.52,40.289 25.66,7.098 48.08,-15.68 52.92,-38.23 4.14,-21.52 -5.7,-44.5 -23.78,-57.461 -20.91,-14.91 -42.17,-29.879 -66.46,-39.27 2.53,7.242 5.25,14.43 8.08,21.52 15.86,3.761 34.69,2.199 47.62,13.211 20.96,24.828 18.29,70.109 -14.39,84.488 -15.1,1.609 -32.73,3.519 -45.05,-6.899 -12.87,-13.39 -22.22,-29.48 -31.87,-45.082 -0.3,9.204 -0.44,18.34 -0.59,27.434 l 0,0" /><path
         id="path4483"
         style="fill:none;stroke:#100f0d;stroke-width:10;stroke-linecap:butt;stroke-linejoin:miter;stroke-miterlimit:4;stroke-dasharray:none;stroke-opacity:1"
         d="m 3376.69,867.582 c 24.08,13.988 46.6,31.738 73.52,40.289 25.66,7.098 48.08,-15.68 52.92,-38.23 4.14,-21.52 -5.7,-44.5 -23.78,-57.461 -20.91,-14.91 -42.17,-29.879 -66.46,-39.27 2.53,7.242 5.25,14.43 8.08,21.52 15.86,3.761 34.69,2.199 47.62,13.211 20.96,24.828 18.29,70.109 -14.39,84.488 -15.1,1.609 -32.73,3.519 -45.05,-6.899 -12.87,-13.39 -22.22,-29.48 -31.87,-45.082 -0.3,9.204 -0.44,18.34 -0.59,27.434 l 0,0 z" /><path
         id="path4485"
         style="fill:#ffffff;fill-opacity:1;fill-rule:nonzero;stroke:none"
         d="m 3321.59,846.02 c 8.08,1.761 16.31,2.789 24.54,3.96 -1.92,-5.921 -3.88,-11.878 -5.76,-17.898 -8.79,-1.863 -17.57,-3.473 -26.36,-4.992 2.28,6.449 3.64,13.301 7.58,18.93 l 0,0" /><path
         id="path4487"
         style="fill:none;stroke:#100f0d;stroke-width:10;stroke-linecap:butt;stroke-linejoin:miter;stroke-miterlimit:4;stroke-dasharray:none;stroke-opacity:1"
         d="m 3321.59,846.02 c 8.08,1.761 16.31,2.789 24.54,3.96 -1.92,-5.921 -3.88,-11.878 -5.76,-17.898 -8.79,-1.863 -17.57,-3.473 -26.36,-4.992 2.28,6.449 3.64,13.301 7.58,18.93 l 0,0 z" /><path
         id="path4489"
         style="fill:#ffffff;fill-opacity:1;fill-rule:nonzero;stroke:none"
         d="m 3189.12,725.281 c 39.49,10.719 77.17,-16.14 95.34,-48.41 28.79,-50.371 45.26,-106.84 53.84,-163.621 5.16,-30.16 0.11,-63.469 -19.99,-87.871 -22.93,-27.43 -68.43,-31.879 -97.37,-10.949 -33.08,22.539 -47.46,61.269 -61.31,96.429 -14.85,45.18 -29.89,91.93 -27.22,139.903 1.87,32.57 22.78,65.867 56.71,74.519 l 0,0" /><path
         id="path4491"
         style="fill:none;stroke:#100f0d;stroke-width:10;stroke-linecap:butt;stroke-linejoin:miter;stroke-miterlimit:4;stroke-dasharray:none;stroke-opacity:1"
         d="m 3189.12,725.281 c 39.49,10.719 77.17,-16.14 95.34,-48.41 28.79,-50.371 45.26,-106.84 53.84,-163.621 5.16,-30.16 0.11,-63.469 -19.99,-87.871 -22.93,-27.43 -68.43,-31.879 -97.37,-10.949 -33.08,22.539 -47.46,61.269 -61.31,96.429 -14.85,45.18 -29.89,91.93 -27.22,139.903 1.87,32.57 22.78,65.867 56.71,74.519 l 0,0 z" /><path
         id="path4493"
         style="fill:#ffffff;fill-opacity:1;fill-rule:nonzero;stroke:none"
         d="m 1886.73,707.281 c 42.37,-13.543 85.05,-26.25 127.51,-39.699 -4.54,-13.641 -9.08,-27.281 -13.48,-41.082 -28.23,8.23 -55.91,18.34 -84.69,24.75 -8.84,-26.109 -18.13,-52.129 -25.4,-78.73 26.16,-6.848 51.76,-15.5 77.57,-23.571 -4.7,-13.207 -9.39,-26.5 -13.34,-40 -26.4,6.16 -51.91,15.313 -78.06,22.352 -11.27,-31.582 -21.77,-63.571 -30.76,-95.84 27.78,-8.27 55.44,-16.969 82.97,-26.02 -3.94,-13.839 -8.64,-27.492 -13.23,-41.121 -42.58,13.629 -85.45,26.399 -127.97,40.039 33.63,99.422 65.09,199.571 98.88,298.922 l 0,0" /><path
         id="path4495"
         style="fill:none;stroke:#100f0d;stroke-width:10;stroke-linecap:butt;stroke-linejoin:miter;stroke-miterlimit:4;stroke-dasharray:none;stroke-opacity:1"
         d="m 1886.73,707.281 c 42.37,-13.543 85.05,-26.25 127.51,-39.699 -4.54,-13.641 -9.08,-27.281 -13.48,-41.082 -28.23,8.23 -55.91,18.34 -84.69,24.75 -8.84,-26.109 -18.13,-52.129 -25.4,-78.73 26.16,-6.848 51.76,-15.5 77.57,-23.571 -4.7,-13.207 -9.39,-26.5 -13.34,-40 -26.4,6.16 -51.91,15.313 -78.06,22.352 -11.27,-31.582 -21.77,-63.571 -30.76,-95.84 27.78,-8.27 55.44,-16.969 82.97,-26.02 -3.94,-13.839 -8.64,-27.492 -13.23,-41.121 -42.58,13.629 -85.45,26.399 -127.97,40.039 33.63,99.422 65.09,199.571 98.88,298.922 l 0,0 z" /><path
         id="path4497"
         style="fill:#1a1d42;fill-opacity:1;fill-rule:nonzero;stroke:none"
         d="m 3197.81,675.359 c 17.68,7.282 35,-7.39 41.87,-22.3 20.45,-40.539 31.66,-84.688 43.07,-128.219 3.84,-20.969 10.96,-45.039 -1.36,-64.551 -10.55,-15.098 -34.64,-8.398 -43.43,5.293 -17.48,25.227 -25.1,55.359 -34.64,83.91 -8.23,31.578 -20.4,62.977 -20.11,95.938 -0.35,11.48 4.65,23.371 14.6,29.929 l 0,0" /><path
         id="path4499"
         style="fill:#ffffff;fill-opacity:1;fill-rule:nonzero;stroke:none"
         d="m 2939.2,639.512 c 39.08,9.84 78.22,19.457 117.46,28.91 3.69,-14.09 7.63,-28.121 11.37,-42.211 -28.59,-5.922 -56.57,-14.082 -85.09,-20 4.38,-22.641 8.17,-45.371 14.54,-67.629 10.85,12.668 24.49,25.289 42.62,25.867 19.39,2.801 38.88,-6.551 50.1,-21.808 21.86,-28.852 30.04,-64.59 37.16,-99.02 3.94,-24.301 6.12,-52.371 -10.45,-73.012 -17.68,-21.019 -48.93,-27.828 -75.59,-23.711 -37.88,9.543 -49.65,52.071 -57.02,84.59 13.64,3.371 27.32,6.801 40.9,10.473 4.35,-18.391 7.78,-40.582 25.96,-51.25 11.07,-2.152 23.73,-0.441 30.96,8.801 6.05,23.14 -1.82,46.359 -7.13,68.75 -4.23,15.75 -8.38,32.468 -19.75,44.898 -10.8,9.68 -28.22,6.738 -37.71,-3.18 -3.69,-6.55 -5.16,-13.988 -7.02,-21.218 -12.63,-2.602 -25.05,-5.832 -37.57,-8.864 -10.56,53.352 -25.51,105.922 -33.74,159.614 l 0,0" /><path
         id="path4501"
         style="fill:none;stroke:#100f0d;stroke-width:10;stroke-linecap:butt;stroke-linejoin:miter;stroke-miterlimit:4;stroke-dasharray:none;stroke-opacity:1"
         d="m 2939.2,639.512 c 39.08,9.84 78.22,19.457 117.46,28.91 3.69,-14.09 7.63,-28.121 11.37,-42.211 -28.59,-5.922 -56.57,-14.082 -85.09,-20 4.38,-22.641 8.17,-45.371 14.54,-67.629 10.85,12.668 24.49,25.289 42.62,25.867 19.39,2.801 38.88,-6.551 50.1,-21.808 21.86,-28.852 30.04,-64.59 37.16,-99.02 3.94,-24.301 6.12,-52.371 -10.45,-73.012 -17.68,-21.019 -48.93,-27.828 -75.59,-23.711 -37.88,9.543 -49.65,52.071 -57.02,84.59 13.64,3.371 27.32,6.801 40.9,10.473 4.35,-18.391 7.78,-40.582 25.96,-51.25 11.07,-2.152 23.73,-0.441 30.96,8.801 6.05,23.14 -1.82,46.359 -7.13,68.75 -4.23,15.75 -8.38,32.468 -19.75,44.898 -10.8,9.68 -28.22,6.738 -37.71,-3.18 -3.69,-6.55 -5.16,-13.988 -7.02,-21.218 -12.63,-2.602 -25.05,-5.832 -37.57,-8.864 -10.56,53.352 -25.51,105.922 -33.74,159.614 l 0,0 z" /><path
         id="path4503"
         style="fill:#ffffff;fill-opacity:1;fill-rule:nonzero;stroke:none"
         d="m 2072.77,651.789 c 34.04,7.973 78.99,-1.809 93.72,-35.789 12.08,-24.512 4.6,-51.738 0.91,-77.168 -14.64,2.34 -29.03,5.719 -43.57,8.258 2.77,16.969 8.28,35.5 -0.51,51.64 -7.92,11.532 -24.34,11.84 -36.87,8.86 -18.02,-12.078 -18.17,-38 -11.05,-56 21.71,-33.348 54.74,-60.539 67.57,-99.02 7.42,-35.16 -1.32,-74.281 -25.56,-101.761 -34.24,-39.407 -111.7,-24.879 -127.97,24.211 -8.42,27.812 -1,56.871 4.7,84.441 15.26,-1.949 30.21,-5.481 45.35,-8.41 -4.44,-19.422 -10.19,-39.563 -5.7,-59.512 5,-17.508 27.47,-21.219 43.11,-16.187 14.76,7.73 17.94,25.539 19.81,40.207 1.92,26.441 -19.35,45.761 -34.29,65.32 -21.62,25.922 -44.29,56.191 -40.04,91.402 2.06,31.539 17.01,68.449 50.39,79.508 l 0,0" /><path
         id="path4505"
         style="fill:none;stroke:#100f0d;stroke-width:10;stroke-linecap:butt;stroke-linejoin:miter;stroke-miterlimit:4;stroke-dasharray:none;stroke-opacity:1"
         d="m 2072.77,651.789 c 34.04,7.973 78.99,-1.809 93.72,-35.789 12.08,-24.512 4.6,-51.738 0.91,-77.168 -14.64,2.34 -29.03,5.719 -43.57,8.258 2.77,16.969 8.28,35.5 -0.51,51.64 -7.92,11.532 -24.34,11.84 -36.87,8.86 -18.02,-12.078 -18.17,-38 -11.05,-56 21.71,-33.348 54.74,-60.539 67.57,-99.02 7.42,-35.16 -1.32,-74.281 -25.56,-101.761 -34.24,-39.407 -111.7,-24.879 -127.97,24.211 -8.42,27.812 -1,56.871 4.7,84.441 15.26,-1.949 30.21,-5.481 45.35,-8.41 -4.44,-19.422 -10.19,-39.563 -5.7,-59.512 5,-17.508 27.47,-21.219 43.11,-16.187 14.76,7.73 17.94,25.539 19.81,40.207 1.92,26.441 -19.35,45.761 -34.29,65.32 -21.62,25.922 -44.29,56.191 -40.04,91.402 2.06,31.539 17.01,68.449 50.39,79.508 l 0,0 z" /><path
         id="path4507"
         style="fill:#ffffff;fill-opacity:1;fill-rule:nonzero;stroke:none"
         d="m 2798.51,620.449 c 23.78,8.461 54.23,7.813 72.37,-11.59 21.71,-23.871 27.42,-56.679 33.22,-86.949 5.7,-41.961 14.8,-83.519 17.73,-125.781 1.06,-26 -0.2,-56.277 -20.9,-75.488 -24.95,-17.11 -63.19,-23.571 -88.03,-2.891 -14.59,11.238 -18.69,29.73 -23.79,46.07 13.34,2.45 26.72,4.782 40.21,6.789 5.64,-7.668 8.68,-21.257 20.65,-21.257 9.54,-1.082 20.4,1.41 25.5,10.058 5.11,23.77 0.91,48.27 -1.72,72.078 -13.49,-10.406 -26.42,-26.109 -45.69,-23.609 -27.48,-2.297 -45.66,22 -53.44,44.402 -12.47,36.758 -17.57,75.981 -14.95,114.571 1.57,22.839 15.87,45.91 38.84,53.597 l 0,0" /><path
         id="path4509"
         style="fill:none;stroke:#100f0d;stroke-width:10;stroke-linecap:butt;stroke-linejoin:miter;stroke-miterlimit:4;stroke-dasharray:none;stroke-opacity:1"
         d="m 2798.51,620.449 c 23.78,8.461 54.23,7.813 72.37,-11.59 21.71,-23.871 27.42,-56.679 33.22,-86.949 5.7,-41.961 14.8,-83.519 17.73,-125.781 1.06,-26 -0.2,-56.277 -20.9,-75.488 -24.95,-17.11 -63.19,-23.571 -88.03,-2.891 -14.59,11.238 -18.69,29.73 -23.79,46.07 13.34,2.45 26.72,4.782 40.21,6.789 5.64,-7.668 8.68,-21.257 20.65,-21.257 9.54,-1.082 20.4,1.41 25.5,10.058 5.11,23.77 0.91,48.27 -1.72,72.078 -13.49,-10.406 -26.42,-26.109 -45.69,-23.609 -27.48,-2.297 -45.66,22 -53.44,44.402 -12.47,36.758 -17.57,75.981 -14.95,114.571 1.57,22.839 15.87,45.91 38.84,53.597 l 0,0 z" /><path
         id="path4511"
         style="fill:#ffffff;fill-opacity:1;fill-rule:nonzero;stroke:none"
         d="m 2209.68,624.789 c 53.12,-3.519 105.44,-13.738 158.57,-17.398 -0.65,-14.582 -2.23,-29.102 -3.44,-43.672 -19.44,0.929 -38.63,4.203 -57.97,6.203 -8.99,-89.973 -22.78,-179.453 -33.23,-269.281 -15.2,2.097 -30.35,4.5 -45.66,5.519 11.32,89.582 22.83,179.121 33.74,268.75 -18.03,2.84 -36.2,4.699 -54.34,6.469 0.41,14.519 1.47,28.992 2.33,43.41 l 0,0" /><path
         id="path4513"
         style="fill:none;stroke:#100f0d;stroke-width:10;stroke-linecap:butt;stroke-linejoin:miter;stroke-miterlimit:4;stroke-dasharray:none;stroke-opacity:1"
         d="m 2209.68,624.789 c 53.12,-3.519 105.44,-13.738 158.57,-17.398 -0.65,-14.582 -2.23,-29.102 -3.44,-43.672 -19.44,0.929 -38.63,4.203 -57.97,6.203 -8.99,-89.973 -22.78,-179.453 -33.23,-269.281 -15.2,2.097 -30.35,4.5 -45.66,5.519 11.32,89.582 22.83,179.121 33.74,268.75 -18.03,2.84 -36.2,4.699 -54.34,6.469 0.41,14.519 1.47,28.992 2.33,43.41 l 0,0 z" /><path
         id="path4515"
         style="fill:#ffffff;fill-opacity:1;fill-rule:nonzero;stroke:none"
         d="m 2653.07,606.5 c 10.25,0.891 20.5,1.57 30.81,2.148 8.68,-104.437 13.82,-209.039 21.75,-313.589 -15.35,-1.61 -30.75,-3.079 -46.1,-4.149 -5.4,73.301 -8.79,146.801 -15.56,219.949 -19.79,-0.929 -39.58,-1.91 -59.23,-4.109 -0.4,12.91 -0.71,25.77 -1.22,38.582 17.13,4.258 36.47,7.039 49,20.398 11.36,11.051 15.34,26.551 20.55,40.77 l 0,0" /><path
         id="path4517"
         style="fill:none;stroke:#100f0d;stroke-width:10;stroke-linecap:butt;stroke-linejoin:miter;stroke-miterlimit:4;stroke-dasharray:none;stroke-opacity:1"
         d="m 2653.07,606.5 c 10.25,0.891 20.5,1.57 30.81,2.148 8.68,-104.437 13.82,-209.039 21.75,-313.589 -15.35,-1.61 -30.75,-3.079 -46.1,-4.149 -5.4,73.301 -8.79,146.801 -15.56,219.949 -19.79,-0.929 -39.58,-1.91 -59.23,-4.109 -0.4,12.91 -0.71,25.77 -1.22,38.582 17.13,4.258 36.47,7.039 49,20.398 11.36,11.051 15.34,26.551 20.55,40.77 l 0,0 z" /><path
         id="path4519"
         style="fill:#1a1d42;fill-opacity:1;fill-rule:nonzero;stroke:none"
         d="m 2820.18,579.359 c 7.06,0.981 16.45,2.602 20.25,-5.129 11.1,-16.429 12.72,-36.82 15.75,-55.8 2.12,-19.551 9.09,-41.41 -2.77,-59.41 -10.92,-5.231 -28.19,-5.559 -32.78,7.679 -10.26,22.59 -11.01,47.883 -15.26,71.883 -1.01,14.34 -5.05,37.309 14.81,40.777 l 0,0" /><path
         id="path4521"
         style="fill:#ffffff;fill-opacity:1;fill-rule:nonzero;stroke:none"
         d="m 2392.44,344.602 c 14.74,-0.68 29.53,-1.372 44.39,-1.872 -0.31,-17.539 -1.42,-35.05 -3.44,-52.558 -14.13,0.398 -28.23,0.637 -42.32,1.18 0.05,17.738 0.96,35.5 1.37,53.25 l 0,0" /><path
         id="path4523"
         style="fill:none;stroke:#100f0d;stroke-width:10;stroke-linecap:butt;stroke-linejoin:miter;stroke-miterlimit:4;stroke-dasharray:none;stroke-opacity:1"
         d="m 2392.44,344.602 c 14.74,-0.68 29.53,-1.372 44.39,-1.872 -0.31,-17.539 -1.42,-35.05 -3.44,-52.558 -14.13,0.398 -28.23,0.637 -42.32,1.18 0.05,17.738 0.96,35.5 1.37,53.25 l 0,0 z" /></g></g></svg>